<?xml version="1.0" encoding="UTF-8"?>
<svg id="Layer_2" data-name="Layer 2" xmlns="http://www.w3.org/2000/svg" viewBox="0 0 268.85 173.63">
  <defs>
    <style>
      .cls-1 {
        fill: #c34a36;
      }
    </style>
  </defs>
  <g id="Layer_1-2" data-name="Layer 1">
    <path class="cls-1" d="M.25,1.65l.25.47-.25.47-.25-.47.25-.47ZM64.37,161.58H.25l10.15-37.51h38.2c-.08,0-.13.04-.13.12,0,.08-.04.12-.12.12.08.16.12.32.12.47.08,0,.17-.08.25-.24,0-.15-.02-.24-.06-.24-.04,0-.06-.08-.06-.24h5.64c.08.32.21.32.37,0h8.89c-.17.63-.13,1.1.12,1.42.25.47.5.47.75,0,.08-.47.08-.94,0-1.42h1c1.67,0,3.07-.94,4.2-2.83s1.86-4.24,2.19-7.07c0,.79.13,1.26.38,1.42.67.63,1.08.32,1.25-.94.08-.79-.04-1.42-.38-1.89-.34-.47-.67-.47-1,0-.08.16-.13.28-.13.35,0,.08-.04.2-.13.35.08-.32.13-.86.13-1.65,0-.63-.04-1.1-.13-1.42v-.24c.08-.32.04-.79-.13-1.42-.33-2.83-1.25-5.11-2.75-6.84.67-.31,1.33-.63,2-.94.67-.31,1.34-.63,2-.94,0,1.1.25,1.73.75,1.89.33.32.63.24.88-.24s.33-1.1.25-1.89c0-.16-.02-.27-.06-.35-.04-.08-.06-.19-.06-.35.08-.16.17-.24.25-.24s.17-.08.25-.24c.33.63.63.87.88.71.67.32,1-.31,1-1.89l.75-.71c.33.63.67.63,1,0,.17-.15.33-.55.5-1.18.17-.31.5-.63,1-.94.25,0,.46-.15.63-.47.25-.15.38-.39.38-.71.67-.63,1.13-1.1,1.38-1.42.25,0,.42-.08.5-.24l.37-.71c.17-.31.38-.55.63-.71.25-.15.46-.39.63-.71h.25c-.34.94-.37,1.89-.13,2.83-.5-.63-.88-.94-1.13-.94-.84.32-1.21,1.18-1.13,2.59.08.94.35,1.65.81,2.12.46.47.86.39,1.19-.24.33-.31.52-.75.56-1.3.04-.55.02-1.06-.06-1.53.42.79.88,1.03,1.38.71-.34,1.26-.38,2.28-.13,3.07-.17-.31-.36-.59-.56-.83-.21-.24-.4-.27-.56-.12-.34.16-.63.43-.88.82-.25.39-.29.99-.13,1.77,0,.79.23,1.45.69,2,.46.55.86.51,1.19-.12.33-.31.52-.75.56-1.3.04-.55.02-1.06-.06-1.53.42.79.88,1.02,1.38.71-.17,1.26-.21,2.28-.12,3.07-.17-.31-.42-.59-.75-.83-.34-.24-.63-.19-.88.12-.75.94-.84,2.12-.25,3.54.17.63.42,1.02.75,1.18.33.16.67,0,1-.47.25-.31.39-.75.44-1.3.04-.55.02-1.06-.06-1.53.67.63,1.13.87,1.38.71-.17,1.26-.17,2.28,0,3.07-.67-.94-1.17-1.26-1.5-.94-.42.32-.67.82-.75,1.53-.09.71,0,1.38.25,2.01.17.79.44,1.26.81,1.42.38.16.69,0,.94-.47.5-.47.67-1.49.5-3.07.42.79.88,1.1,1.38.94-.25,1.1-.29,2.12-.13,3.07-.34-.63-.63-.94-.88-.94-.42-.32-.79-.12-1.13.59-.34.71-.42,1.45-.25,2.24s.46,1.38.88,1.77c.42.39.79.35,1.13-.12.33-.32.52-.75.56-1.3.04-.55.02-1.14-.06-1.77.08.47.29.71.63.71,0,1.1-.04,1.89-.13,2.36h-.13c-.42-.32-.77-.12-1.06.59-.29.71-.35,1.45-.19,2.24.17,1.1.58,1.81,1.25,2.12-.17.94-.25,1.73-.25,2.36-.5-.47-.96-.31-1.38.47-.17.32-.25.94-.25,1.89.17,1.1.5,1.81,1,2.12-.08.47-.15.91-.19,1.3-.04.39-.11.82-.19,1.3-.42-.31-.71-.08-.88.71-.5.79-.5,1.81,0,3.07,0,.32-.08.79-.25,1.42,0-.31-.04-.47-.13-.47,0-.78-.23-1.37-.69-1.77-.46-.39-.81-.27-1.06.35-.25.47-.33,1.06-.25,1.77.08.71.29,1.22.63,1.53.42.47.79.39,1.13-.24-.17.63-.35,1.26-.56,1.89-.21.63-.4,1.26-.56,1.89-.42-.15-.71-.08-.88.24-.42.63-.46,1.42-.13,2.36-.08.32-.17.55-.25.71-.08.16-.17.39-.25.71,0-.31-.08-.63-.25-.94-.33-.78-.75-.86-1.25-.24-.5.94-.46,1.89.13,2.83.08.16.15.24.19.24s.1.08.19.24c-1.92,4.09-4.13,7.51-6.64,10.26-2.51,2.75-5.22,4.68-8.14,5.78-.08-.15-.25-.15-.5,0v.24c-1.5.47-3.05.71-4.63.71h-1ZM2.88,2.83l-.38-.71.38-.71.37.71-.37.71ZM2.5,7.31l.38-.71.37.71-.37.71-.38-.71ZM3.26,12.74l-.25.47-.25-.94.13-.24.37.71ZM5.39.94c.08.32.17.51.25.59.08.08.17.28.25.59l-.5.94c-.08-.15-.15-.31-.19-.47-.04-.15-.11-.31-.19-.47.08-.31.15-.51.19-.59.04-.08.1-.27.19-.59ZM5.39,8.49c-.08-.31-.15-.51-.19-.59-.04-.08-.11-.27-.19-.59.08-.16.15-.31.19-.47.04-.16.1-.31.19-.47l.5.94c-.08.32-.17.51-.25.59-.08.08-.17.28-.25.59ZM5.39,13.68c-.08-.16-.15-.31-.19-.47-.04-.16-.11-.31-.19-.47.08-.31.15-.51.19-.59.04-.08.1-.27.19-.59.08.32.17.51.25.59.08.08.17.28.25.59l-.5.94ZM5.39,18.87c-.17-.32-.29-.63-.38-.94.08-.16.15-.32.19-.47.04-.16.1-.32.19-.47.08.32.17.51.25.59.08.08.17.2.25.35-.08.32-.17.51-.25.59-.08.08-.17.2-.25.35ZM5.76,23.59l-.37-1.18c.17.16.27.32.31.47.04.16.1.32.19.47l-.13.24ZM8.64,2.12c-.25.32-.46.71-.63,1.18l-.63-1.18c.17-.31.33-.78.5-1.42l.75,1.42ZM8.02,8.73c-.17-.31-.27-.55-.31-.71-.04-.16-.15-.39-.31-.71.17-.16.33-.55.5-1.18.33.63.58,1.02.75,1.18-.34.63-.54,1.1-.63,1.42ZM7.39,12.74c.17-.31.33-.78.5-1.42l.75,1.42c-.17.32-.29.51-.38.59-.08.08-.17.28-.25.59l-.63-1.18ZM8.02,19.34c-.17-.32-.27-.55-.31-.71-.04-.16-.15-.39-.31-.71.17-.16.33-.55.5-1.18.33.63.58,1.02.75,1.18-.34.63-.54,1.1-.63,1.42ZM7.39,23.35c.17-.32.33-.79.5-1.42l.75,1.42c-.17.32-.29.51-.38.59-.08.08-.17.28-.25.59l-.63-1.18ZM8.02,29.96c-.17-.31-.27-.55-.31-.71-.04-.15-.15-.39-.31-.71.17-.15.33-.55.5-1.18.33.63.58,1.03.75,1.18-.34.63-.54,1.1-.63,1.42ZM10.52.47c.25.63.54,1.18.88,1.65-.34.47-.63,1.03-.88,1.65-.34-.78-.58-1.33-.75-1.65.42-.78.67-1.33.75-1.65ZM11.4,7.31c-.34.47-.63,1.02-.88,1.65-.17-.31-.29-.59-.37-.83-.09-.24-.21-.51-.38-.82.42-.78.67-1.34.75-1.65.25.63.54,1.18.88,1.65ZM10.52,14.15c-.17-.31-.29-.55-.37-.71-.09-.16-.21-.39-.38-.71.42-.78.67-1.34.75-1.65.25.63.54,1.18.88,1.65-.25.32-.54.79-.88,1.42ZM10.52,16.28c.25.63.54,1.18.88,1.65-.34.47-.63,1.02-.88,1.65-.34-.79-.58-1.34-.75-1.65.33-.63.58-1.18.75-1.65ZM10.52,21.7c.25.63.54,1.18.88,1.65-.25.32-.54.79-.88,1.42-.17-.32-.29-.55-.37-.71-.09-.16-.21-.39-.38-.71.33-.63.58-1.18.75-1.65ZM10.52,30.19c-.17-.31-.29-.59-.37-.82-.09-.24-.21-.51-.38-.83.42-.78.67-1.33.75-1.65.25.63.54,1.18.88,1.65-.34.47-.63,1.03-.88,1.65ZM10.52,32.31c.25.63.54,1.18.88,1.65-.25.32-.54.79-.88,1.42-.17-.31-.29-.55-.37-.71-.09-.15-.21-.39-.38-.71.33-.63.58-1.18.75-1.65ZM65.25,0c3.67,0,7.14,1.3,10.39,3.89s6.08,6.13,8.45,10.61,4.26,9.75,5.63,15.8c1.38,6.06,2.07,12.46,2.07,19.22,0,7.55-.88,14.62-2.63,21.23-.75,3.15-1.8,6.13-3.13,8.96-1.75,4.56-4.2,8.06-7.33,10.5-3.13,2.44-6.28,4.29-9.46,5.54-3.67,1.42-7.52,2.28-11.52,2.59l.25.24h-27.55l-11.27-37.27h46.09c1.92,0,3.49-1.14,4.7-3.42,1.21-2.28,1.82-5.07,1.82-8.38s-.61-6.37-1.82-8.73-2.78-3.54-4.7-3.54h-19.91c.17-.31.21-.71.13-1.18-.08-.31-.19-.43-.31-.35-.13.08-.23.28-.31.59-.17.32-.13.63.13.94h-2.13c.17-.31.25-.55.25-.71,0-.63-.17-.94-.5-.94-.17,0-.33.32-.5.94,0,.16.08.39.25.71h-1.88c.17-.31.17-.63,0-.94,0-.78-.21-1.02-.63-.71-.34,0-.42.47-.25,1.42v.24h-1.63c.17-.31.17-.63,0-.94,0-.94-.21-1.26-.63-.94-.42.32-.54.87-.37,1.65v.24h-1.5c.17-.47.17-1.02,0-1.65-.34-.63-.67-.63-1,0-.34.32-.38.87-.13,1.65h-1.38c.17-.47.17-.86,0-1.18-.08-.78-.31-1.14-.69-1.06-.38.08-.61.51-.69,1.3,0,.47.04.79.13.94h-1.25c.25-.78.17-1.42-.25-1.89-.17-.47-.42-.59-.75-.35-.34.24-.5.75-.5,1.53,0,.32.04.55.13.71h-1.13c.25-.63.21-1.26-.13-1.89-.17-.47-.42-.67-.75-.59-.34.08-.59.51-.75,1.3,0,.47.04.87.13,1.18h-.88c0-.94-.04-1.57-.13-1.89-.17-.47-.42-.71-.75-.71s-.58.24-.75.71c-.17.32-.25.94-.25,1.89h-.63c.17-1.1.04-1.89-.37-2.36-.25-.47-.54-.59-.88-.35-.34.24-.59.67-.75,1.3v1.42h-.5v-.71c.08-.63,0-1.18-.25-1.65-.25-.47-.5-.63-.75-.47-.42-.15-.73.08-.94.71-.21.63-.27,1.26-.19,1.89v.24h-.37v-.71c.08-.63,0-1.18-.25-1.65s-.54-.71-.88-.71-.63.24-.88.71c-.25.47-.34,1.03-.25,1.65v.71h-.25c.17-.78.13-1.53-.12-2.24-.25-.71-.59-1.06-1-1.06s-.71.24-.88.71-.33.94-.5,1.42c-.17-.94-.46-1.65-.88-2.12.58-.47.92-1.26,1-2.36.17,1.1.37,1.73.63,1.89.83.63,1.38.32,1.63-.94.25-.78.25-1.65,0-2.59-.25-.94-.59-1.33-1-1.18-.58-.15-1.04.55-1.38,2.12,0-.94-.29-1.73-.88-2.36.17-.31.35-.63.56-.94.21-.31.35-.71.44-1.18.17.94.37,1.57.63,1.89.83.63,1.38.24,1.63-1.18.25-.78.25-1.61,0-2.48-.25-.86-.59-1.3-1-1.3s-.71.24-.88.71-.33.94-.5,1.42c-.17-.94-.46-1.65-.88-2.12.58-.47.92-1.26,1-2.36.17,1.1.37,1.73.63,1.89.83.63,1.38.32,1.63-.94.25-.79.25-1.65,0-2.59-.25-.94-.59-1.34-1-1.18-.58-.16-1.04.55-1.38,2.12-.08-1.1-.37-1.89-.88-2.36.58-.47.92-1.18,1-2.12.17.94.37,1.57.63,1.89.83.63,1.38.24,1.63-1.18.25-.79.25-1.61,0-2.48-.25-.86-.59-1.3-1-1.3s-.71.24-.88.71-.33.94-.5,1.42c-.17-.94-.46-1.65-.88-2.12.58-.47.92-1.26,1-2.36.17,1.57.58,2.28,1.25,2.12.33.16.63-.04.88-.59.25-.55.33-1.14.25-1.77.08-.78,0-1.45-.25-2.01-.25-.55-.54-.75-.88-.59-.67-.16-1.09.55-1.25,2.12-.34-1.26-.67-2.04-1-2.36.58-.47.92-1.26,1-2.36.08.47.19.94.31,1.42s.31.79.56.94c.42.16.79-.04,1.13-.59.33-.55.46-1.22.37-2,.08-.78,0-1.42-.25-1.89-.25-.47-.54-.71-.88-.71-.67,0-1.09.71-1.25,2.12-.25-1.1-.58-1.81-1-2.12.5-.63.79-1.33.88-2.12h.13l.37,1.42c.33.63.71.82,1.13.59.42-.24.71-.74.88-1.53v-.47h.25c.08.63.25,1.14.5,1.53.25.39.54.44.88.12.42,0,.71-.55.88-1.65h.37c.17,1.42.63,1.97,1.38,1.65.33-.15.58-.71.75-1.65h.5c.08.47.25.91.5,1.3.25.39.5.44.75.12.33,0,.58-.47.75-1.42h.63c.17,1.26.54,1.73,1.13,1.42.33-.15.58-.63.75-1.42h.75c.17,1.1.5,1.5,1,1.18.33,0,.58-.39.75-1.18h.88c.17.79.46,1.18.88,1.18.33,0,.58-.39.75-1.18h1.13c.17.94.46,1.26.88.94.25-.15.37-.47.37-.94h1.38c0,.32.08.47.25.47,0,.16.17.24.5.24.25,0,.37-.24.37-.71h1.5c.17.63.37.79.63.47.08,0,.21-.15.37-.47h1.63c.17.63.37.79.63.47.17,0,.25-.15.25-.47h1.75c.17.47.33.55.5.24.08,0,.17-.08.25-.24h2c0,.16.08.24.25.24l.13-.24h19.91ZM13.02,37.27l.13-.24v.24h-.13ZM17.16,7.08c.42-.16.71-.75.88-1.77.17-1.02.04-1.77-.38-2.24-.25-.78-.61-1.02-1.06-.71-.46.32-.73.94-.81,1.89-.17.79-.08,1.53.25,2.24.33.71.71.91,1.13.59ZM18.04,10.14c.08-.78,0-1.42-.25-1.89s-.54-.63-.88-.47c-.34-.16-.63,0-.88.47-.25.47-.34,1.1-.25,1.89-.08.79.04,1.42.37,1.89s.67.55,1,.24c.25,0,.48-.24.69-.71.21-.47.27-.94.19-1.42ZM18.04,15.33c.08-.63,0-1.18-.25-1.65s-.54-.71-.88-.71c-.34-.16-.63.04-.88.59-.25.55-.34,1.14-.25,1.77-.08.79.04,1.45.37,2,.33.55.67.67,1,.35.25-.16.48-.43.69-.83.21-.39.27-.9.19-1.53ZM18.04,20.76c.08-.79,0-1.42-.25-1.89s-.54-.63-.88-.47c-.34-.16-.63,0-.88.47-.25.47-.34,1.1-.25,1.89-.08.79.04,1.42.37,1.89s.67.63,1,.47c.25-.16.48-.47.69-.94.21-.47.27-.94.19-1.42ZM18.04,25.95c.08-.63,0-1.18-.25-1.65s-.54-.71-.88-.71c-.34-.16-.63.04-.88.59-.25.55-.34,1.14-.25,1.77-.08.79.04,1.46.37,2.01.33.55.67.67,1,.35.25-.15.48-.43.69-.82.21-.39.27-.9.19-1.53ZM18.04,31.37c.08-.78,0-1.42-.25-1.89s-.54-.63-.88-.47c-.34-.15-.63,0-.88.47-.25.47-.34,1.1-.25,1.89-.08.79.04,1.42.37,1.89s.67.63,1,.47c.25-.15.48-.47.69-.94.21-.47.27-.94.19-1.42ZM19.79,17.46c.33-.16.56-.55.69-1.18.13-.63.1-1.26-.06-1.89-.17-.94-.5-1.38-1-1.3-.5.08-.84.59-1,1.53-.17.79-.08,1.53.25,2.24.33.71.71.91,1.13.59ZM19.79,12.27c.33-.16.56-.59.69-1.3.13-.71.1-1.37-.06-2-.17-.63-.4-1.02-.69-1.18-.29-.16-.56-.08-.81.24-.5.63-.67,1.49-.5,2.59.17,1.42.63,1.97,1.38,1.65ZM19.29,2.59c-.75.32-1.04,1.26-.88,2.83.17,1.57.63,2.05,1.38,1.42.33-.16.56-.55.69-1.18.13-.63.1-1.26-.06-1.89-.17-1.1-.54-1.49-1.13-1.18ZM19.66,22.88c.58-.32.88-1.02.88-2.12.08-.79,0-1.38-.25-1.77-.25-.39-.5-.59-.75-.59-.42,0-.73.28-.94.82-.21.55-.27,1.22-.19,2.01.17,1.42.58,1.97,1.25,1.65ZM19.66,28.07c.58,0,.88-.71.88-2.12.08-.63,0-1.18-.25-1.65-.25-.47-.5-.63-.75-.47-.42-.16-.73.04-.94.59-.21.55-.27,1.22-.19,2,.08.63.25,1.14.5,1.53.25.39.5.43.75.12ZM20.54,31.37c.08-.78,0-1.37-.25-1.77-.25-.39-.5-.59-.75-.59-.42,0-.73.28-.94.83-.21.55-.27,1.22-.19,2,.17,1.42.58,1.97,1.25,1.65.58-.31.88-1.02.88-2.12ZM21.04,4.01c-.17.79-.11,1.49.19,2.12.29.63.6.87.94.71.42,0,.71-.55.88-1.65.17-.94.04-1.65-.37-2.12-.25-.47-.54-.59-.88-.35-.34.24-.59.67-.75,1.3ZM21.04,9.44c-.17.79-.11,1.49.19,2.12.29.63.6.79.94.47.42,0,.71-.47.88-1.42.17-1.1.04-1.89-.37-2.36-.25-.47-.54-.59-.88-.35-.34.24-.59.75-.75,1.53ZM23.04,15.8c.08-.78-.04-1.49-.37-2.12-.25-.47-.54-.59-.88-.35-.34.24-.59.67-.75,1.3-.17.79-.11,1.49.19,2.12.29.63.6.86.94.71.42-.16.71-.71.88-1.65ZM23.04,20.99c.08-.63-.04-1.34-.37-2.12-.25-.47-.54-.59-.88-.35-.34.24-.59.75-.75,1.53-.17.79-.11,1.49.19,2.12.29.63.6.79.94.47.42,0,.71-.55.88-1.65ZM22.17,28.07c.42-.15.71-.71.88-1.65.17-.94.04-1.65-.37-2.12-.25-.47-.54-.59-.88-.35-.34.24-.59.67-.75,1.3-.17.79-.11,1.49.19,2.12.29.63.6.87.94.71ZM22.17,33.26c.42,0,.71-.51.88-1.53.17-1.02.04-1.77-.37-2.24-.25-.31-.54-.39-.88-.24-.34.16-.59.63-.75,1.42-.17.79-.11,1.5.19,2.12.29.63.6.79.94.47ZM24.67,33.26c.42,0,.69-.35.82-1.06s.1-1.38-.06-2.01c-.17-.63-.42-.94-.75-.94s-.58.32-.75.94c-.34.63-.4,1.34-.19,2.12.21.79.52,1.1.94.94ZM23.8,3.77c-.17.79-.15,1.53.06,2.24.21.71.52.91.94.59.42,0,.67-.43.75-1.3.08-.86,0-1.53-.25-2-.17-.47-.42-.67-.75-.59-.34.08-.59.44-.75,1.06ZM23.8,9.2c-.17.63-.15,1.3.06,2,.21.71.52.99.94.83.42-.16.67-.63.75-1.42.08-.78,0-1.42-.25-1.89-.17-.47-.42-.67-.75-.59-.34.08-.59.43-.75,1.06ZM23.8,14.39c-.17.79-.15,1.53.06,2.24.21.71.52.91.94.59.42,0,.67-.43.75-1.3.08-.86,0-1.53-.25-2-.17-.47-.42-.67-.75-.59-.34.08-.59.43-.75,1.06ZM23.8,19.81c-.17.63-.15,1.3.06,2,.21.71.52.98.94.83.42-.16.67-.63.75-1.42.08-.79,0-1.42-.25-1.89-.17-.47-.42-.67-.75-.59-.34.08-.59.43-.75,1.06ZM23.8,25.24c-.17.63-.15,1.3.06,2,.21.71.52.91.94.59.42,0,.67-.43.75-1.3.08-.86,0-1.53-.25-2-.25-.47-.52-.63-.82-.47s-.52.55-.69,1.18ZM28.05,5.43c.17-1.26-.04-2.04-.63-2.36-.33-.31-.65-.2-.94.35-.29.55-.35,1.14-.19,1.77.08.94.42,1.42,1,1.42.42-.31.67-.71.75-1.18ZM28.05,10.61c.08-.31.06-.75-.06-1.3-.13-.55-.31-.9-.56-1.06-.33-.31-.65-.2-.94.35-.29.55-.35,1.22-.19,2.01.17,1.1.5,1.49,1,1.18.33,0,.58-.39.75-1.18ZM28.05,16.04c.17-1.26-.04-2.04-.63-2.36-.33-.31-.65-.2-.94.35-.29.55-.35,1.14-.19,1.77.08.94.42,1.42,1,1.42.42-.32.67-.71.75-1.18ZM28.05,21.23c.17-.94-.04-1.73-.63-2.36-.33-.32-.65-.2-.94.35-.29.55-.35,1.22-.19,2.01.17,1.1.5,1.49,1,1.18.33,0,.58-.39.75-1.18ZM27.3,27.83c.67-.31.92-1.1.75-2.36-.08-.79-.33-1.26-.75-1.42-.42-.16-.71.16-.88.94-.25.63-.27,1.3-.06,2s.52.98.94.82ZM27.3,33.02c.67,0,.92-.78.75-2.36-.08-.78-.33-1.21-.75-1.3-.42-.08-.71.2-.88.82-.25.63-.27,1.3-.06,2.01s.52.98.94.82ZM28.93,4.25c-.08.63-.02,1.18.19,1.65.21.47.44.63.69.47.25,0,.46-.31.63-.94.17-.63.17-1.18,0-1.65-.17-.63-.44-.86-.82-.71-.37.16-.61.55-.69,1.18ZM29.81,11.79c.25,0,.46-.31.63-.94.17-.63.17-1.18,0-1.65-.34-1.26-.75-1.42-1.25-.47-.25.47-.31,1.14-.19,2,.13.87.4,1.22.82,1.06ZM29.81,16.98c.25,0,.46-.27.63-.83.17-.55.17-1.06,0-1.53-.17-.47-.38-.78-.63-.94-.25-.16-.46,0-.63.47-.25.47-.31,1.1-.19,1.89.13.79.4,1.1.82.94ZM29.81,22.41c.25,0,.46-.32.63-.94.17-.63.17-1.18,0-1.65-.34-1.26-.75-1.42-1.25-.47-.25.47-.31,1.14-.19,2,.13.87.4,1.22.82,1.06ZM29.81,27.6c.25,0,.46-.31.63-.94.17-.63.17-1.18,0-1.65-.34-1.1-.75-1.18-1.25-.24-.25.47-.31,1.1-.19,1.88.13.79.4,1.1.82.94ZM29.81,33.02c.25,0,.46-.31.63-.94.17-.63.17-1.18,0-1.65-.34-1.26-.75-1.42-1.25-.47-.25.47-.31,1.14-.19,2.01.13.87.4,1.22.82,1.06ZM32.56,11.56c.58-.63.67-1.49.25-2.59-.17-.31-.4-.43-.69-.35-.29.08-.48.43-.56,1.06-.08.63,0,1.14.25,1.53.25.39.5.51.75.35ZM32.56,16.75c.25-.16.39-.51.44-1.06.04-.55-.02-.98-.19-1.3-.17-.47-.4-.63-.69-.47-.29.16-.48.55-.56,1.18-.08.47,0,.94.25,1.42.25.47.5.55.75.24ZM32.56,22.17c.5-.63.63-1.34.37-2.12-.08-.63-.31-.94-.69-.94s-.61.39-.69,1.18c-.08.63,0,1.14.25,1.53.25.39.5.51.75.35ZM32.56,27.36c.58-.31.71-.94.37-1.88-.08-.79-.31-1.14-.69-1.06-.38.08-.61.51-.69,1.3-.08.47,0,.94.25,1.41.25.47.5.55.75.24ZM32.56,32.79c.5-.63.63-1.33.37-2.12-.08-.63-.31-.94-.69-.94s-.61.39-.69,1.18c-.08.63,0,1.14.25,1.53.25.39.5.51.75.35ZM31.69,4.01c-.17.63-.15,1.22.06,1.77.21.55.48.67.82.35.58-.31.71-.94.37-1.89-.08-.63-.27-.98-.56-1.06-.29-.08-.52.2-.69.83ZM35.07,5.9c.25-.15.42-.47.5-.94.08-.47.04-.86-.13-1.18-.25-.47-.58-.55-1-.24-.5.94-.46,1.73.12,2.36.17.32.33.32.5,0ZM35.07,16.75c.58-.63.71-1.42.37-2.36-.25-.47-.58-.55-1-.24-.5.94-.46,1.73.12,2.36.08.16.25.24.5.24ZM35.07,27.36c.25-.15.42-.51.5-1.06.08-.55.04-.98-.13-1.3-.25-.47-.58-.55-1-.24-.5.94-.46,1.73.12,2.36.08.16.25.24.5.24ZM35.07,11.32c.25-.16.42-.47.5-.94.08-.47.04-.86-.13-1.18-.34-.78-.67-.86-1-.24-.17.32-.23.71-.19,1.18s.15.79.31.94c0,.16.17.24.5.24ZM35.07,21.94c.25-.16.42-.47.5-.94.08-.47.04-.86-.13-1.18-.42-.63-.75-.71-1-.24-.17.32-.23.71-.19,1.18s.15.86.31,1.18h.5ZM35.07,32.55c.25-.15.42-.47.5-.94.08-.47.04-.86-.13-1.18-.42-.63-.75-.71-1-.24-.17.32-.23.71-.19,1.18s.15.87.31,1.18h.5ZM37.57,5.9c.42-.31.54-.78.37-1.42,0-.94-.21-1.26-.63-.94-.42.32-.54.87-.37,1.65,0,.32.06.55.19.71.13.16.27.16.44,0ZM37.57,11.09c.42,0,.54-.47.37-1.42,0-.78-.21-1.02-.63-.71-.42,0-.54.47-.37,1.42,0,.94.21,1.18.63.71ZM37.57,16.51c.42-.32.54-.79.37-1.42,0-.94-.21-1.26-.63-.94-.42.32-.54.87-.37,1.65,0,.32.06.55.19.71s.27.16.44,0ZM37.57,21.7c.42,0,.54-.47.37-1.42,0-.79-.21-1.02-.63-.71-.42.32-.54.79-.37,1.42,0,.94.21,1.18.63.71ZM37.57,27.12c.42-.31.54-.78.37-1.41,0-.94-.21-1.26-.63-.94-.42.32-.54.86-.37,1.65,0,.32.06.55.19.71.13.16.27.16.44,0ZM37.57,32.55c.42-.31.54-.86.37-1.65,0-.78-.21-1.02-.63-.71-.42.32-.54.79-.37,1.42,0,1.1.21,1.42.63.94ZM40.2,5.66c.33,0,.42-.39.25-1.18,0-.78-.21-1.02-.63-.71-.34,0-.42.47-.25,1.42,0,.79.21.94.63.47ZM40.2,11.09c.33-.31.42-.78.25-1.42,0-.78-.21-1.02-.63-.71-.34.32-.42.79-.25,1.42,0,.32.06.55.19.71.13.16.27.16.44,0ZM40.2,16.28c.33,0,.42-.39.25-1.18,0-.78-.21-1.02-.63-.71-.34,0-.42.47-.25,1.42,0,.79.21.94.63.47ZM40.2,21.7c.33-.32.42-.79.25-1.42,0-.79-.21-1.02-.63-.71-.34.32-.42.79-.25,1.42,0,.32.06.55.19.71s.27.16.44,0ZM40.2,26.89c.33,0,.42-.39.25-1.18,0-.79-.21-1.02-.63-.71-.34,0-.42.47-.25,1.41,0,.79.21.94.63.47ZM40.2,32.31c.25-.31.33-.78.25-1.42,0-.78-.21-1.02-.63-.71-.34.32-.42.79-.25,1.42,0,.94.21,1.18.63.71ZM42.71,5.66c.25-.47.38-.78.38-.94,0-.63-.17-.94-.5-.94-.17,0-.33.32-.5.94.25.79.46,1.1.63.94ZM42.71,10.85c.25,0,.38-.24.38-.71,0-.63-.17-.94-.5-.94-.17,0-.33.32-.5.94.17.63.38.87.63.71ZM42.71,16.28c.25-.47.38-.78.38-.94,0-.63-.17-.94-.5-.94-.17,0-.33.32-.5.94.25.79.46,1.1.63.94ZM42.71,21.47c.25,0,.38-.24.38-.71,0-.63-.17-.94-.5-.94-.17,0-.33.32-.5.94.17.63.38.86.63.71ZM42.71,26.89c.25-.47.38-.78.38-.94,0-.63-.17-.94-.5-.94-.17,0-.33.32-.5.94.25.79.46,1.1.63.94ZM42.71,32.08c.25,0,.38-.24.38-.71,0-.63-.17-.94-.5-.94-.17,0-.33.32-.5.94.17.63.38.87.63.71ZM45.21,4.01c-.25-.15-.37.08-.37.71,0,.47.13.71.37.71.17,0,.25-.15.25-.47.17-.31.08-.63-.25-.94ZM45.21,9.2c-.25,0-.37.32-.37.94,0,.47.13.71.37.71l.25-.47c.17-.47.08-.86-.25-1.18ZM45.21,16.04c.25,0,.38-.24.38-.71-.17-.63-.34-.86-.5-.71-.17,0-.25.24-.25.71,0,.79.13,1.02.37.71ZM45.59,20.76c0-.63-.17-.94-.5-.94-.17.16-.25.47-.25.94s.13.71.37.71l.38-.71ZM45.21,26.65c.08,0,.21-.24.38-.71,0-.31-.06-.55-.19-.71-.13-.16-.23-.16-.31,0-.17,0-.25.24-.25.71,0,.79.13,1.03.37.71ZM45.59,31.37c0-.63-.17-.94-.5-.94-.17.16-.25.47-.25.94s.13.71.37.71l.38-.71ZM46.34,126.9c0,.16.04.24.12.24,0-.15-.04-.24-.12-.24ZM47.72,5.43c.33-.31.42-.63.25-.94-.17-.63-.34-.63-.5,0-.08.16-.08.35,0,.59.08.24.17.35.25.35ZM47.72,10.61c.33,0,.42-.31.25-.94-.25-.47-.42-.47-.5,0-.08.32-.08.59,0,.82.08.24.17.28.25.12ZM47.72,16.04c.33-.32.42-.63.25-.94-.17-.63-.34-.63-.5,0-.08.16-.08.35,0,.59.08.24.17.35.25.35ZM47.72,21.23c.33,0,.42-.32.25-.94-.25-.47-.42-.47-.5,0-.08.32-.08.59,0,.82.08.24.17.28.25.12ZM47.72,26.65c.33-.31.42-.63.25-.94-.17-.63-.34-.63-.5,0-.08.16-.08.35,0,.59.08.24.17.35.25.35ZM47.84,31.84c.17-.31.21-.63.13-.94-.08-.31-.21-.31-.37,0-.17.16-.21.44-.13.83.08.39.21.43.37.12ZM47.84,37.03c.17-.15.21-.43.13-.82-.08-.39-.21-.43-.37-.12-.17.32-.21.63-.13.94.08.32.21.32.37,0ZM47.84,131.38c0,.16.04.24.13.24,0-.15-.04-.24-.13-.24ZM49.34,135.87c.08.16.17.24.25.24-.08-.15-.17-.24-.25-.24ZM50.22,129.02c0-.15-.04-.31-.13-.47l-.25.24.25.47.13-.24ZM50.1,5.19h.37v-.71h-.37v.71ZM50.1,10.38h.37v-.71h-.37v.71ZM50.1,15.8h.37v-.71h-.37v.71ZM50.1,20.99h.37v-.71h-.37v.71ZM50.1,26.42h.37v-.71h-.37v.71ZM50.1,31.61h.37v-.71h-.37v.71ZM50.47,37.03c0-.47-.04-.78-.12-.94-.09,0-.13.04-.13.12,0,.08-.04.12-.13.12v.71h.37ZM51.1,140.58l-.12-.24c0,.16.04.24.12.24ZM51.6,133.74c0-.15.08-.24.25-.24l-.25-.47-.13.24c0,.16.04.32.13.47ZM52.23,126.67c.08,0,.13-.04.13-.12,0-.08.04-.12.12-.12,0-.15-.08-.39-.25-.71l-.25.47.25.47ZM52.47,144.83c0,.16.04.16.13,0h-.13ZM52.98,4.48h-.25v.47h.25v-.47ZM52.98,9.67h-.25v.71h.25v-.71ZM52.98,15.1h-.25v.47h.25v-.47ZM52.98,20.52h-.25v.47h.25v-.47ZM52.98,25.71h-.25v.47h.25v-.47ZM52.98,31.13h-.25v.47h.25v-.47ZM52.98,36.32h-.25v.47h.25v-.47ZM53.1,138.22c.08-.15.17-.24.25-.24-.08-.15-.13-.31-.13-.47-.17,0-.25.08-.25.24l.12.47ZM53.73,131.15c.08,0,.17-.08.25-.24,0-.15-.02-.27-.06-.35-.04-.08-.06-.2-.06-.35-.08.16-.15.24-.19.24s-.11.08-.19.24l.25.47ZM53.98,149.31c0,.16.02.24.06.24s.06-.08.06-.24-.02-.24-.06-.24-.06.08-.06.24ZM54.6,142.71c.08-.15.17-.24.25-.24,0-.15-.04-.31-.13-.47-.08,0-.17.08-.25.24l.13.47ZM55.23,135.63c.08,0,.15-.04.19-.12.04-.08.1-.12.19-.12-.17-.31-.25-.55-.25-.71l-.25.47.13.47ZM55.48,4.95c0-.31-.04-.39-.13-.24,0,.16.04.24.13.24ZM55.48,10.14c0-.16-.04-.24-.13-.24,0,.16.04.24.13.24ZM55.48,15.57c0-.31-.04-.39-.13-.24,0,.16.04.24.13.24ZM55.48,20.76c0-.16-.04-.24-.13-.24,0,.16.04.24.13.24ZM55.48,26.18c0-.31-.04-.39-.13-.24,0,.16.04.24.13.24ZM55.48,31.37c0-.15-.04-.24-.13-.24,0,.16.04.24.13.24ZM55.48,36.8c0-.31-.04-.39-.13-.24,0,.16.04.24.13.24ZM55.48,153.79c0,.16.02.24.06.24s.06-.08.06-.24-.04-.15-.13,0ZM55.73,128.55c.33.32.5.16.5-.47,0-.31-.06-.51-.19-.59-.12-.08-.23-.04-.31.12-.08.16-.12.35-.12.59s.04.35.12.35ZM56.23,147.19c0-.15.02-.24.06-.24s.06-.08.06-.24l-.12-.24c-.09,0-.17.08-.25.24l.25.47ZM56.61,139.4c0,.16.02.28.06.35.04.08.06.2.06.35.08,0,.15-.04.19-.12.04-.08.1-.12.19-.12-.08-.15-.12-.27-.12-.35,0-.08-.04-.2-.13-.35-.08,0-.13.04-.13.12,0,.08-.04.12-.13.12ZM56.99,158.27c.08.16.17.16.25,0-.08-.15-.17-.15-.25,0ZM57.36,133.03c.25.47.37.32.37-.47.08-.31.04-.51-.12-.59-.17-.08-.3-.04-.38.12-.17.32-.13.63.13.94ZM57.73,151.43l.13-.24-.13-.47c0,.16-.02.24-.06.24-.04,0-.06.08-.06.24l.12.24ZM57.73,125.96c.25.47.46.47.63,0,.08-.15.08-.47,0-.94-.25-.31-.42-.39-.5-.24-.08.32-.13.71-.13,1.18ZM58.36,144.59l.25-.47-.25-.47-.25.24c.08.16.13.28.13.35s.04.2.12.35ZM58.86,137.52c.08.16.19.2.31.12.13-.08.14-.27.06-.59.08-.31.06-.51-.06-.59-.13-.08-.27-.04-.44.12-.17.32-.13.63.13.94ZM59.24,155.92c.08,0,.17-.08.25-.24l-.25-.47c0,.16-.04.24-.13.24,0,.16.04.32.13.47ZM59.36,129.26c-.08.47-.08.87,0,1.18.25.47.42.47.5,0,.08-.15.08-.47,0-.94-.25-.31-.42-.39-.5-.24ZM60.12,148.6l-.13-.47c-.08,0-.15.04-.19.12-.04.08-.11.12-.19.12.08.16.12.28.12.35s.04.2.13.35l.25-.47ZM60.36,142c.33.32.5.16.5-.47s-.21-.78-.63-.47c0,.63.04.94.12.94ZM60.74,160.4c.08,0,.17-.08.25-.24l-.12-.47c-.09.16-.17.24-.25.24,0,.16.04.32.13.47ZM60.87,133.74c0,.16-.02.28-.06.35-.04.08-.06.2-.06.35,0,.47.17.71.5.71.17,0,.25-.39.25-1.18-.25-.47-.46-.55-.63-.24ZM61.37,153.56l.25-.47c0-.15-.02-.24-.06-.24s-.06-.08-.06-.24c-.08,0-.15.04-.19.12-.04.08-.1.12-.19.12.17.32.25.55.25.71ZM61.37,126.67c0,.16-.02.32-.06.47-.04.16-.02.39.06.71.25.47.46.55.63.24.25-.15.29-.55.13-1.18-.17-.78-.42-.86-.75-.24ZM62.37,146.01c0-.31-.06-.55-.19-.71-.13-.15-.23-.08-.31.24-.17.32-.17.63,0,.94.33.32.5.16.5-.47ZM62.75,139.64c.33,0,.42-.39.25-1.18-.17-.31-.37-.39-.63-.24v.71c0,.47.13.71.38.71ZM62.87,158.04c.08-.15.14-.24.19-.24.04,0,.1-.08.19-.24l-.25-.47c-.08,0-.17.08-.25.24,0,.16.02.28.06.35s.06.2.06.35ZM62.99,131.15c-.08.16-.12.55-.12,1.18.33.32.58.39.75.24.17-.31.17-.71,0-1.18-.25-.78-.46-.86-.63-.24ZM63.87,150.49c.08-.31.04-.55-.13-.71-.17-.15-.29-.08-.37.24-.17.32-.13.63.13.94.25.47.37.32.37-.47ZM64,142.71c-.17.32-.23.59-.19.83.04.24.14.35.31.35.17.32.29.32.37,0,.08-.31.08-.63,0-.94-.25-.31-.42-.39-.5-.24ZM64.5,135.63c-.17.32-.17.63,0,.94.17.63.38.79.63.47.25-.47.29-.86.13-1.18-.34-.63-.58-.71-.75-.24ZM65.38,154.97c.08-.31.04-.55-.13-.71-.17-.15-.29-.08-.37.24-.17.32-.13.63.12.94.25.47.38.32.38-.47ZM65,128.55c-.25.47-.21.94.13,1.42.33.63.58.55.75-.24.25-.31.21-.78-.13-1.42-.34-.63-.58-.55-.75.24ZM65.62,148.37c.17.16.29.12.38-.12.08-.24.08-.51,0-.83-.25-.31-.42-.39-.5-.24-.17.32-.23.59-.19.83s.15.35.31.35ZM66.75,140.35c-.17-.78-.42-.86-.75-.24-.17.32-.17.63,0,.94.17.63.37.79.63.47.33-.31.37-.71.13-1.18ZM67,159.45c0-.78-.21-1.02-.63-.71-.17.63-.13,1.03.13,1.18.33.32.5.16.5-.47ZM66.5,133.03c-.25.47-.21.94.13,1.42.33.32.58.24.75-.24.25-.31.21-.78-.13-1.42-.17-.47-.42-.39-.75.24ZM67.25,152.85c.17.16.29.12.37-.12s.08-.51,0-.83c-.33-.31-.54-.39-.63-.24-.25.79-.17,1.18.25,1.18ZM67.13,125.72c-.17.63-.13,1.18.13,1.65.25.63.54.63.88,0,.17-.63.12-1.18-.13-1.65-.34-.47-.63-.47-.88,0ZM68.13,146.01c.25-.31.29-.78.12-1.42-.25-.47-.5-.47-.75,0-.17.32-.17.63,0,.94.17.79.37.94.63.47ZM68.88,137.28c-.25-.47-.5-.47-.75,0-.25.47-.21,1.03.12,1.65.17.47.42.39.75-.24.17-.31.13-.78-.12-1.42ZM68.76,157.33c.17.16.29.12.37-.12.08-.24.08-.51,0-.83-.17-.31-.37-.39-.63-.24-.08.16-.11.39-.06.71.04.32.14.47.31.47ZM68.63,130.2c-.17.63-.13,1.18.13,1.65.25.63.54.63.88,0,.25-.78.21-1.33-.12-1.65-.34-.47-.63-.47-.88,0ZM69.63,150.49c.25-.31.29-.78.13-1.42-.25-.78-.46-.78-.63,0-.25.47-.29.79-.13.94.17.79.38.94.63.47ZM69.26,123.13c-.17.32-.21.71-.13,1.18.08.47.25.79.5.94.33.32.58,0,.75-.94.17-.31.15-.67-.06-1.06-.21-.39-.4-.59-.56-.59-.08-.15-.25,0-.5.47ZM69.76,143.41c.25.32.5.24.75-.24.17-.63.13-1.1-.13-1.42-.34-.63-.58-.63-.75,0-.25.47-.21,1.03.13,1.65ZM71.01,134.69c-.34-.63-.58-.63-.75,0-.33.63-.33,1.18,0,1.65.42.79.71.79.88,0,.33-.63.29-1.18-.13-1.65ZM71.26,154.97c.17-.63.21-1.1.13-1.42-.34-.63-.59-.63-.75,0-.17.32-.17.63,0,.94.08.32.29.47.63.47ZM70.76,127.61c-.17.32-.19.67-.06,1.06.13.39.27.75.44,1.06.42.32.71,0,.88-.94.17-.94-.08-1.57-.75-1.89-.08,0-.25.24-.5.71ZM71.14,104.02c.25.47.56.59.94.35.38-.24.52-.75.44-1.53.08-.78-.08-1.38-.5-1.77-.42-.39-.75-.35-1,.12-.5.94-.46,1.89.13,2.83ZM71.26,147.9c.33.32.58.24.75-.24.17-.63.13-1.1-.13-1.42-.34-.63-.58-.63-.75,0-.17.63-.13,1.18.13,1.65ZM71.39,120.3c-.17.32-.21.75-.13,1.3.08.55.25.91.5,1.06.25.32.5.24.75-.24s.29-1.02.13-1.65c-.17-.47-.38-.74-.63-.82-.25-.08-.46.04-.63.35ZM72.51,139.17c-.08-.31-.21-.47-.37-.47s-.3.16-.38.47c-.34.63-.29,1.18.13,1.65.42.32.67.24.75-.24.17-.15.23-.39.19-.71-.04-.31-.15-.55-.31-.71ZM72.77,159.22c.17-.31.21-.71.12-1.18-.33-.47-.58-.55-.75-.24-.17.47-.17.87,0,1.18.08.47.29.55.63.24ZM72.26,132.09c-.17.32-.19.67-.06,1.06.13.39.27.67.44.82.42.32.71.08.88-.71.08-.31.04-.71-.12-1.18-.17-.47-.38-.71-.63-.71s-.42.24-.5.71ZM72.26,107.33c.08.47.23.91.44,1.3.21.39.44.43.69.12.42,0,.65-.39.69-1.18.04-.78-.06-1.34-.31-1.65-.42-.78-.84-.86-1.25-.24-.17.63-.25,1.18-.25,1.65ZM73.51,152.14c.33-.63.29-1.1-.12-1.42-.17-.63-.42-.63-.75,0-.17.63-.13,1.1.13,1.42.33.63.58.63.75,0ZM72.89,124.78c-.25.79-.21,1.5.13,2.12.25.32.52.35.82.12.29-.24.39-.67.31-1.3,0-.78-.17-1.26-.5-1.42-.34-.15-.58,0-.75.47ZM73.39,145.3c.42.32.71.24.88-.24.25-.47.21-1.02-.12-1.65-.34-.31-.63-.24-.88.24-.17.63-.13,1.18.13,1.65ZM73.51,117.23c-.17.32-.25.79-.25,1.42s.17,1.1.5,1.42c.17.32.38.35.63.12.25-.24.42-.59.5-1.06.17-.78.06-1.42-.31-1.89-.37-.47-.73-.47-1.06,0ZM74.39,135.87c-.25,0-.46.16-.63.47-.34,1.1-.21,1.81.38,2.12.42.32.71.08.88-.71.08-.31.04-.71-.13-1.18s-.33-.71-.5-.71ZM75.27,110.39c-.42-.79-.8-.86-1.13-.24-.34.63-.42,1.18-.25,1.65,0,.47.13.86.37,1.18.25.32.46.39.63.24.42,0,.67-.39.75-1.18s-.04-1.34-.37-1.65ZM75.02,156.62c.33-.63.29-1.1-.13-1.42-.25-.78-.46-.78-.63,0-.25.47-.25.94,0,1.42.33.63.58.63.75,0ZM75.77,130.2c-.08-.78-.29-1.26-.63-1.42-.34-.15-.58,0-.75.47-.17.32-.21.67-.13,1.06.08.39.21.75.38,1.06.17.32.42.35.75.12.33-.24.46-.67.37-1.3ZM74.64,103.08c-.25.47-.34,1.1-.25,1.89.08.79.33,1.26.75,1.42.33.16.63.04.88-.35.25-.39.33-.9.25-1.53,0-.78-.21-1.38-.63-1.77-.42-.39-.75-.27-1,.35ZM75.77,149.55c.17-.63.13-1.18-.13-1.65-.42-.31-.71-.24-.88.24-.25.47-.21,1.03.12,1.65.33.32.63.24.88-.24ZM76.4,122.66c-.08-.47-.27-.82-.56-1.06s-.52-.2-.69.12c-.25.32-.37.79-.37,1.42s.17,1.1.5,1.42c.33.32.65.24.94-.24.29-.47.35-1.02.19-1.65ZM75.77,142.94c.33.32.58.08.75-.71.08-.31.04-.71-.13-1.18s-.34-.71-.5-.71-.34.16-.5.47c-.17.32-.21.71-.13,1.18.08.47.25.79.5.94ZM76.77,114.64c-.42-.63-.8-.63-1.13,0-.25.47-.34,1.02-.25,1.65.17,1.26.54,1.73,1.13,1.41.33,0,.54-.39.63-1.18.08-.79-.04-1.42-.37-1.89ZM76.14,135.87c.25.32.52.32.82,0,.29-.31.39-.78.31-1.42-.08-.63-.29-1.02-.63-1.18-.34-.15-.59,0-.75.47-.17.32-.21.67-.13,1.06.08.39.21.75.37,1.06ZM76.65,110.86c.33.16.63.04.88-.35.25-.39.33-.9.25-1.53,0-.79-.21-1.38-.63-1.77-.42-.39-.75-.27-1,.35-.25.32-.33.91-.25,1.77.08.87.33,1.38.75,1.53ZM77.27,154.03c.17-.63.13-1.18-.13-1.65-.42-.31-.71-.24-.88.24-.08.16-.13.39-.13.71s.08.55.25.71c.25.63.54.63.88,0ZM76.77,129.02c.42.32.75.24,1-.24s.29-1.02.13-1.65c-.08-.47-.27-.82-.56-1.06-.29-.24-.52-.2-.69.12-.25.32-.36.79-.31,1.42.04.63.19,1.1.44,1.42ZM76.77,100.25c-.34.47-.42,1.26-.25,2.36.25.79.58,1.18,1,1.18.33.16.63-.04.88-.59.25-.55.29-1.14.13-1.77-.17-.78-.44-1.3-.81-1.53-.38-.24-.69-.12-.94.35ZM78.03,146.72c.17-.31.17-.71,0-1.18-.17-.47-.38-.71-.63-.71-.17,0-.34.16-.5.47-.17.32-.21.71-.12,1.18.08.47.25.79.5.94.5.32.75.08.75-.71ZM78.03,122.18c.42,0,.65-.39.69-1.18.04-.78-.11-1.42-.44-1.89-.34-.63-.71-.63-1.13,0-.25.47-.34,1.03-.25,1.65.17,1.26.54,1.73,1.13,1.42ZM77.4,138.22c-.17.32-.19.75-.06,1.3.13.55.31.91.56,1.06.25.16.48.04.69-.35.21-.39.27-.83.19-1.3-.09-.63-.3-1.02-.63-1.18-.33-.15-.58,0-.75.47ZM79.4,113.22c-.09-.79-.34-1.34-.75-1.65-.42-.32-.75-.16-1,.47-.25.32-.31.91-.19,1.77.13.87.39,1.3.81,1.3.33.32.63.28.88-.12.25-.39.33-.98.25-1.77ZM78.4,133.51c.33.32.63.24.88-.24.25-.47.29-1.02.13-1.65-.09-.47-.27-.82-.56-1.06-.29-.24-.52-.2-.69.12-.25.32-.35.79-.31,1.42.04.63.23,1.1.56,1.42ZM79.03,108.27c.42.16.73-.04.94-.59.21-.55.23-1.14.06-1.77-.17-.78-.44-1.3-.82-1.53-.37-.24-.69-.12-.94.35-.34.63-.42,1.42-.25,2.36.25.79.58,1.18,1,1.18ZM79.65,151.2c.08-.31.04-.71-.13-1.18s-.37-.71-.63-.71c-.17,0-.33.16-.5.47-.34,1.1-.21,1.81.38,2.12.42.32.71.08.88-.71ZM79.9,123.6c-.42-.47-.84-.47-1.25,0-.34.47-.38,1.18-.13,2.12s.58,1.26,1,.94c.42,0,.65-.39.69-1.18.04-.78-.06-1.42-.31-1.89ZM78.78,97.65c-.5.94-.5,1.81,0,2.59.33,1.57.83,1.89,1.5.94.33-.31.5-.86.5-1.65s-.12-1.42-.37-1.89c-.17-.31-.44-.51-.81-.59-.38-.08-.65.12-.81.59ZM79.4,145.07c.25.16.48.04.69-.35.21-.39.27-.83.19-1.3-.08-.63-.27-1.02-.56-1.18-.3-.15-.52,0-.69.47-.17.32-.21.71-.13,1.18s.25.87.5,1.18ZM80.9,117.7c0-.78-.21-1.33-.63-1.65-.42-.32-.75-.16-1,.47-.34.32-.44.86-.31,1.65.13.79.39,1.26.81,1.42.33.32.63.28.88-.12.25-.39.33-.98.25-1.77ZM79.65,135.16c-.25.32-.35.83-.31,1.53s.27,1.14.69,1.3c.33.32.63.24.88-.24.25-.47.29-1.02.13-1.65-.17-.47-.37-.82-.63-1.06s-.5-.2-.75.12ZM80.53,112.75c.42.16.73-.04.94-.59.21-.55.23-1.14.06-1.77-.08-.79-.33-1.3-.75-1.53-.42-.24-.75-.12-1,.35-.34.63-.42,1.34-.25,2.12.25.94.58,1.42,1,1.42ZM80.28,128.08c-.42.47-.5,1.18-.25,2.12.25.94.58,1.26,1,.94.42,0,.67-.39.75-1.18.08-.78-.04-1.42-.37-1.89-.42-.63-.8-.63-1.13,0ZM80.66,105.67c.42.47.83.39,1.25-.24.42-.63.54-1.34.37-2.12-.17-.78-.48-1.34-.94-1.65-.46-.31-.81-.16-1.06.47-.25.47-.34,1.1-.25,1.89.08.79.29,1.34.63,1.65ZM80.9,149.55c.25.16.48.04.69-.35.21-.39.27-.83.19-1.3,0-.63-.17-1.06-.5-1.3-.34-.24-.59-.04-.75.59-.17.32-.21.71-.13,1.18.08.47.25.87.5,1.18ZM81.28,124.07c.33.32.63.24.88-.24.25-.47.33-1.02.25-1.65,0-.78-.21-1.33-.63-1.65-.42-.31-.75-.24-1,.24-.33.47-.44,1.1-.31,1.89.13.79.4,1.26.82,1.42ZM80.9,95.06c-.42.63-.46,1.57-.13,2.83.17.47.44.79.82.94.37.16.69.08.94-.24.25-.31.39-.78.44-1.42.04-.63-.02-1.18-.19-1.65-.17-.78-.46-1.22-.88-1.3-.42-.08-.75.2-1,.83ZM81.53,142.47c.33.32.63.24.88-.24s.29-1.02.13-1.65c-.34-1.57-.75-1.89-1.25-.94-.34.32-.46.83-.38,1.53s.29,1.14.63,1.3ZM82.16,117.23c.33.16.61-.04.82-.59.21-.55.23-1.14.06-1.77-.08-.79-.31-1.3-.69-1.53-.38-.24-.69-.12-.94.35-.34.47-.42,1.18-.25,2.12.17.94.5,1.41,1,1.41ZM81.78,132.56c-.25.32-.36.75-.31,1.3.04.55.19.98.44,1.3.33.63.71.71,1.13.24.17-.31.23-.82.19-1.53s-.19-1.22-.44-1.53c-.33-.47-.67-.39-1,.24ZM83.79,109.21c.17-.32.19-.75.06-1.3-.12-.55-.27-.98-.44-1.3-.58-1.1-1.13-1.1-1.63,0-.17.47-.23,1.1-.19,1.89.04.79.23,1.34.56,1.65.75.47,1.29.16,1.63-.94ZM82.78,128.55c.33.32.63.24.88-.24s.33-1.02.25-1.65c0-.78-.21-1.33-.63-1.65-.42-.31-.75-.24-1,.24-.25.47-.34,1.1-.25,1.89.08.79.33,1.26.75,1.42ZM84.29,99.78c-.17-.63-.46-.98-.88-1.06-.42-.08-.75.12-1,.59-.5.94-.5,1.89,0,2.83.17.63.42,1.02.75,1.18.33.16.63.08.88-.24.25-.31.39-.78.44-1.42.04-.63-.02-1.26-.19-1.89ZM82.91,146.95c.33.32.65.24.94-.24s.35-1.02.19-1.65c-.09-.63-.27-1.02-.56-1.18-.29-.15-.52-.08-.69.24-.25.32-.35.79-.31,1.42.04.63.19,1.1.44,1.42ZM83.66,121.71c.33.16.6-.08.81-.71.21-.63.23-1.26.06-1.89-.08-.78-.34-1.26-.75-1.42-.42-.15-.75,0-1,.47-.25.47-.29,1.18-.12,2.12.17.94.5,1.42,1,1.42ZM84.16,140.11c.33-.15.54-.63.63-1.42.08-.78-.04-1.33-.37-1.65-.25-.78-.63-.86-1.13-.24-.42.79-.46,1.57-.13,2.36.08.63.42.94,1,.94ZM85.04,114.17c.25-.32.35-.83.31-1.53s-.19-1.22-.44-1.53c-.5-1.26-1-1.26-1.5,0-.25.47-.33,1.06-.25,1.77.08.71.29,1.22.63,1.53.5.94.92.86,1.25-.24ZM85.79,104.26c-.17-.63-.46-.98-.88-1.06-.42-.08-.75.12-1,.59-.5.94-.5,1.89,0,2.83.17.63.42,1.02.75,1.18.33.16.63.08.88-.24.33-.31.52-.78.56-1.42.04-.63-.06-1.26-.31-1.89ZM84.41,133.03c.33.32.6.24.81-.24.21-.47.31-1.02.31-1.65-.08-.78-.34-1.33-.75-1.65-.42-.31-.75-.24-1,.24s-.31,1.1-.19,1.89c.13.79.39,1.26.81,1.42ZM84.41,122.66c-.25.47-.34,1.1-.25,1.89.08.79.29,1.26.63,1.42.42.32.79.24,1.13-.24.33-.47.42-1.1.25-1.89-.17-.78-.46-1.33-.88-1.65-.42-.31-.71-.15-.88.47ZM85.92,119.35c.42,0,.71-.35.88-1.06s.13-1.45-.12-2.24c-.17-.63-.44-1.02-.82-1.18-.37-.16-.69.08-.94.71-.42.63-.48,1.45-.19,2.48.29,1.03.69,1.45,1.19,1.3ZM85.92,137.52c.33.32.63.24.88-.24.25-.47.33-1.02.25-1.65,0-.78-.21-1.33-.63-1.65-.42-.31-.75-.24-1,.24-.33.47-.44,1.1-.31,1.89.13.79.4,1.26.82,1.42ZM87.54,109.45c-.17-.94-.48-1.53-.94-1.77s-.81-.04-1.06.59c-.42.63-.52,1.42-.31,2.36.21.94.56,1.49,1.06,1.65.42.32.77.12,1.06-.59.29-.71.35-1.45.19-2.24ZM86.42,130.44c.42.32.77.2,1.06-.35.29-.55.35-1.22.19-2.01-.17-.78-.44-1.3-.81-1.53-.38-.24-.69-.04-.94.59-.25.47-.34,1.06-.25,1.77.08.71.33,1.22.75,1.53ZM85.66,88.69c.08-.15.13-.31.13-.47.17-.31.31-.55.44-.71.13-.15.27-.31.44-.47h.37c-.08.47-.13,1.18-.13,2.12-.5-.31-.92-.47-1.25-.47ZM86.42,120.06c-.34.63-.38,1.38-.13,2.24.25.87.58,1.38,1,1.53.42,0,.75-.27,1-.82.25-.55.29-1.22.13-2.01-.17-.78-.48-1.33-.94-1.65-.46-.31-.81-.08-1.06.71ZM89.05,113.69c-.17-.79-.48-1.3-.94-1.53-.46-.24-.81-.04-1.06.59-.34.63-.4,1.42-.19,2.36.21.94.52,1.49.94,1.65.42.32.77.08,1.06-.71.29-.79.35-1.57.19-2.36ZM87.54,91.05c.33.32.67.47,1,.47-.08.47-.13,1.18-.13,2.12-.5-.31-.92-.47-1.25-.47.17-.31.25-.67.25-1.06s.04-.74.13-1.06ZM89.92,125.49c-.17-.78-.48-1.33-.94-1.65-.46-.31-.82-.08-1.06.71-.34.63-.38,1.38-.13,2.24.25.87.58,1.38,1,1.53.42,0,.75-.27,1-.82.25-.55.29-1.22.13-2.01ZM90.55,118.17c-.17-.78-.48-1.3-.94-1.53-.46-.24-.82-.04-1.06.59-.34.63-.4,1.42-.19,2.36.21.94.52,1.5.94,1.65.42.32.77.08,1.06-.71.29-.78.35-1.57.19-2.36ZM89.05,95.53c.33.32.67.47,1,.47-.08.47-.12,1.18-.12,2.12-.5-.31-.88-.47-1.13-.47.17-.94.25-1.65.25-2.12ZM91.42,102.61c-.5-.31-.88-.47-1.13-.47.17-.94.25-1.73.25-2.36.08.16.29.39.63.71.17.94.25,1.65.25,2.12Z"/>
    <path class="cls-1" d="M107.28,51.39c0-6.88,1.3-13.37,3.89-19.48,2.59-6.1,6.13-11.38,10.61-15.84,4.48-4.46,9.75-7.98,15.8-10.56,6.06-2.58,12.46-3.87,19.22-3.87,7.55,0,14.62,1.64,21.23,4.93,3.15,1.41,6.13,3.37,8.96,5.87,4.56,3.28,8.06,7.86,10.5,13.72,2.44,5.87,4.29,11.77,5.54,17.72,1.42,6.89,2.28,14.08,2.59,21.59l.24-.47v51.62l-37.27,21.12V51.39c0-3.6-1.14-6.53-3.42-8.8-2.28-2.26-5.07-3.4-8.38-3.4s-6.37,1.14-8.73,3.4c-2.36,2.27-3.54,5.2-3.54,8.8v37.31c-.31-.31-.71-.39-1.18-.23-.31.16-.43.35-.35.58.08.24.28.43.59.59.32.31.63.24.94-.24v3.99c-.31-.31-.55-.47-.71-.47-.63,0-.94.31-.94.94,0,.31.32.63.94.94.16,0,.39-.15.71-.47v3.52c-.31-.31-.63-.31-.94,0-.78,0-1.02.39-.71,1.17,0,.63.47.79,1.42.47h.24v3.05c-.31-.31-.63-.31-.94,0-.94,0-1.26.39-.94,1.17.32.79.87,1.02,1.65.7h.24v2.82c-.47-.31-1.02-.31-1.65,0-.63.63-.63,1.25,0,1.88.32.63.87.7,1.65.23v2.58c-.47-.31-.86-.31-1.18,0-.78.16-1.14.58-1.06,1.29.08.7.51,1.14,1.3,1.29.47,0,.79-.08.94-.24v2.35c-.78-.47-1.42-.31-1.89.47-.47.31-.59.79-.35,1.41.24.63.75.94,1.53.94.32,0,.55-.08.71-.24v2.11c-.63-.47-1.26-.39-1.89.24-.47.31-.67.78-.59,1.41.08.63.51,1.09,1.3,1.41.47,0,.87-.08,1.18-.24v1.64c-.94,0-1.57.08-1.89.23-.47.31-.71.79-.71,1.41s.24,1.1.71,1.41c.32.31.94.47,1.89.47v1.18c-1.1-.31-1.89-.08-2.36.7-.47.47-.59,1.02-.35,1.64.24.63.67,1.1,1.3,1.41h1.42v.94h-.71c-.63-.15-1.18,0-1.65.47-.47.47-.63.94-.47,1.41-.15.79.08,1.37.71,1.76.63.39,1.26.51,1.89.35h.24v.7h-.71c-.63-.15-1.18,0-1.65.47-.47.47-.71,1.02-.71,1.64s.24,1.17.71,1.64c.47.47,1.03.63,1.65.47h.71v.47c-.78-.31-1.53-.23-2.24.24s-1.06,1.1-1.06,1.88.24,1.33.71,1.64c.47.31.94.63,1.42.94-.94.31-1.65.86-2.12,1.64-.47-1.09-1.26-1.72-2.36-1.88,1.1-.31,1.73-.7,1.89-1.17.63-1.56.32-2.58-.94-3.05-.78-.47-1.65-.47-2.59,0s-1.33,1.1-1.18,1.88c-.15,1.1.55,1.96,2.12,2.58-.94,0-1.73.55-2.36,1.64-.31-.31-.63-.66-.94-1.06-.31-.39-.71-.66-1.18-.82.94-.31,1.57-.7,1.89-1.17.63-1.56.24-2.58-1.18-3.05-.78-.47-1.61-.47-2.48,0-.86.47-1.3,1.1-1.3,1.88s.24,1.33.71,1.64c.47.31.94.63,1.42.94-.94.31-1.65.86-2.12,1.64-.47-1.09-1.26-1.72-2.36-1.88,1.1-.31,1.73-.7,1.89-1.17.63-1.56.32-2.58-.94-3.05-.79-.47-1.65-.47-2.59,0s-1.34,1.1-1.18,1.88c-.16,1.1.55,1.96,2.12,2.58-1.1.16-1.89.7-2.36,1.64-.47-1.09-1.18-1.72-2.12-1.88.94-.31,1.57-.7,1.89-1.17.63-1.56.24-2.58-1.18-3.05-.79-.47-1.61-.47-2.48,0-.86.47-1.3,1.1-1.3,1.88s.24,1.33.71,1.64c.47.31.94.63,1.42.94-.94.31-1.65.86-2.12,1.64-.47-1.09-1.26-1.72-2.36-1.88,1.57-.31,2.28-1.09,2.12-2.35.16-.62-.04-1.17-.59-1.64-.55-.47-1.14-.63-1.77-.47-.78-.15-1.45,0-2.01.47-.55.47-.75,1.02-.59,1.64-.16,1.25.55,2.04,2.12,2.35-1.26.63-2.04,1.25-2.36,1.88-.47-1.09-1.26-1.72-2.36-1.88.47-.15.94-.35,1.42-.59.47-.23.79-.58.94-1.06.16-.78-.04-1.48-.59-2.11-.55-.62-1.22-.86-2-.7-.78-.15-1.42,0-1.89.47-.47.47-.71,1.02-.71,1.64,0,1.25.71,2.04,2.12,2.35-1.1.47-1.81,1.1-2.12,1.88-.63-.94-1.33-1.48-2.12-1.64v-.24l1.42-.7c.63-.62.82-1.33.59-2.11-.24-.78-.74-1.33-1.53-1.64h-.47v-.47c.63-.15,1.14-.47,1.53-.94.39-.47.44-1.02.12-1.64,0-.78-.55-1.33-1.65-1.64v-.7c1.42-.31,1.97-1.17,1.65-2.58-.15-.62-.71-1.09-1.65-1.41v-.94c.47-.15.91-.47,1.3-.94.39-.47.44-.94.12-1.41,0-.63-.47-1.09-1.42-1.41v-1.18c1.26-.31,1.73-1.02,1.42-2.11-.15-.62-.63-1.09-1.42-1.4v-1.41c1.1-.31,1.5-.94,1.18-1.88,0-.62-.39-1.09-1.18-1.41v-1.64c.79-.31,1.18-.86,1.18-1.64,0-.62-.39-1.09-1.18-1.41v-2.11c.94-.31,1.26-.86.94-1.64-.15-.47-.47-.7-.94-.7v-2.58c.32,0,.47-.15.47-.47.16,0,.24-.31.24-.94,0-.47-.24-.7-.71-.7v-2.82c.63-.31.79-.7.47-1.17,0-.15-.15-.39-.47-.7v-3.05c.63-.31.79-.7.47-1.18,0-.31-.15-.47-.47-.47v-3.28c.47-.31.55-.63.24-.94,0-.15-.08-.31-.24-.47v-3.76c.16,0,.24-.15.24-.47l-.24-.24v-37.31ZM107.75,153.93c.63-.47,1.18-1.02,1.65-1.64.47.63,1.03,1.17,1.65,1.64-.78.63-1.33,1.1-1.65,1.41-.78-.78-1.33-1.25-1.65-1.41ZM109.4,157.45c.32.47.71.86,1.18,1.17l-1.18,1.17c-.31-.31-.78-.62-1.42-.94l1.42-1.41ZM108.22,163.55c.32-.15.51-.31.59-.47.08-.15.28-.31.59-.47l.94.94c-.15.16-.31.27-.47.35-.15.08-.31.2-.47.35-.31-.15-.51-.27-.59-.35-.08-.08-.27-.19-.59-.35ZM110.11,168.24l-.71.7-.71-.7.71-.7.71.7ZM108.93,173.17l.47-.47.47.47-.47.47-.47-.47ZM114.35,141.49c-.16-.78-.75-1.33-1.77-1.64-1.02-.31-1.77-.08-2.24.7-.78.47-1.02,1.14-.71,2,.32.86.94,1.37,1.89,1.52.79.31,1.53.16,2.24-.47s.91-1.33.59-2.11ZM109.87,137.5c.32,1.4,1.26,1.95,2.83,1.64,1.57-.31,2.05-1.17,1.42-2.58-.16-.62-.55-1.06-1.18-1.29-.63-.23-1.26-.19-1.89.12-1.1.31-1.49,1.02-1.18,2.11ZM111.29,134.22c.79.32,1.49.2,2.12-.35.63-.55.87-1.13.71-1.76,0-.78-.55-1.33-1.65-1.64-.94-.31-1.65-.08-2.12.7-.47.47-.59,1.02-.35,1.64.24.63.67,1.1,1.3,1.41ZM111.05,129.05c.79.31,1.53.27,2.24-.12.71-.39.91-.97.59-1.76,0-.78-.43-1.25-1.3-1.4-.86-.15-1.53,0-2,.47-.47.31-.67.78-.59,1.41.08.63.44,1.1,1.06,1.41ZM112.7,121.08c-1.26-.31-2.04.08-2.36,1.18-.31.63-.2,1.21.35,1.76.55.55,1.14.67,1.77.35.94-.15,1.42-.78,1.42-1.88-.31-.78-.71-1.25-1.18-1.41ZM111.52,119.44c.63.16,1.18.04,1.65-.35.47-.39.63-.82.47-1.29,0-.47-.31-.86-.94-1.17-.63-.31-1.18-.31-1.65,0-.63.31-.86.82-.71,1.52.16.7.55,1.14,1.18,1.29ZM111.29,114.27c.63.31,1.22.28,1.77-.12.55-.39.67-.9.35-1.52-.31-1.09-.94-1.33-1.89-.7-.63.16-.98.51-1.06,1.06-.08.55.2.98.83,1.29ZM113.17,107.94c-.15-.47-.47-.78-.94-.94-.47-.15-.86-.08-1.18.23-.47.47-.55,1.1-.24,1.88.94.94,1.73.86,2.36-.24.32-.31.32-.62,0-.94ZM113.17,103.24c-.31-.78-.78-1.02-1.42-.7-.94,0-1.26.39-.94,1.17.32.79.87,1.02,1.65.7.32,0,.55-.12.71-.35.16-.23.16-.51,0-.82ZM112.94,98.32c0-.62-.39-.78-1.18-.47-.78,0-1.02.39-.71,1.17,0,.63.47.79,1.42.47.79,0,.94-.39.47-1.18ZM112.94,93.62c-.47-.47-.78-.7-.94-.7-.63,0-.94.31-.94.94,0,.31.32.63.94.94.79-.47,1.1-.86.94-1.17ZM111.29,88.93c-.15.47.08.7.71.7.47,0,.71-.24.71-.7,0-.31-.15-.47-.47-.47-.31-.31-.63-.15-.94.47ZM112.7,84.24c-.31-.63-.63-.78-.94-.47-.63.32-.63.63,0,.94.16.16.35.16.59,0,.24-.15.35-.31.35-.47ZM111.76,74.39v.47h.47v-.47h-.47ZM112.46,79.78v-.7h-.71v.7h.71ZM112.23,69.69c-.31,0-.39.08-.24.23.16,0,.24-.08.24-.23ZM114.59,152.28c.47.63,1.02,1.17,1.65,1.64-.31.31-.59.55-.83.7-.24.16-.51.39-.82.7-.78-.78-1.34-1.25-1.65-1.41.63-.47,1.18-1.02,1.65-1.64ZM116,158.62c-.31.31-.55.51-.71.59-.16.08-.39.27-.71.58-.16-.31-.55-.62-1.18-.94.63-.63,1.02-1.09,1.18-1.41.63.63,1.1,1.02,1.42,1.17ZM115.77,163.55c-.31.16-.51.27-.59.35-.08.08-.27.2-.59.35-.16-.15-.31-.27-.47-.35-.16-.08-.31-.19-.47-.35l.94-.94c.32.16.51.31.59.47.08.16.28.32.59.47ZM114.59,168.94l-.71-.7.71-.7.71.7-.71.7ZM119.54,136.56c-.16-.62-.59-1.06-1.3-1.29-.71-.23-1.37-.19-2,.12-.63.31-1.02.74-1.18,1.29-.16.55-.08,1.06.24,1.52.63.94,1.49,1.25,2.59.94,1.42-.31,1.97-1.17,1.65-2.58ZM117.42,139.85c-.78-.15-1.42,0-1.89.47-.47.47-.63,1.02-.47,1.64-.16.63,0,1.17.47,1.64.47.47,1.1.63,1.89.47.79.16,1.42-.08,1.89-.7.47-.62.55-1.25.24-1.88,0-.47-.24-.9-.71-1.29-.47-.39-.94-.51-1.42-.35ZM116.71,134.22c.79.32,1.49.2,2.12-.35.63-.55.79-1.13.47-1.76,0-.78-.47-1.33-1.42-1.64-1.1-.31-1.89-.08-2.36.7-.47.47-.59,1.02-.35,1.64.24.63.75,1.1,1.53,1.41ZM117.89,121.08c-.31-.15-.75-.12-1.3.12-.55.23-.9.58-1.06,1.06-.31.63-.2,1.21.35,1.76.55.55,1.22.67,2.01.35,1.1-.31,1.49-.94,1.18-1.88,0-.62-.39-1.09-1.18-1.41ZM116.47,129.05c.63.31,1.3.27,2-.12.71-.39.99-.97.83-1.76-.16-.78-.63-1.25-1.42-1.4-.78-.15-1.42,0-1.89.47-.47.31-.67.78-.59,1.41.08.63.43,1.1,1.06,1.41ZM119.07,117.79c0-.47-.31-.86-.94-1.17-.63-.31-1.18-.31-1.65,0-1.26.63-1.42,1.41-.47,2.34.47.47,1.14.59,2,.35.87-.23,1.22-.74,1.06-1.52ZM118.6,107.94c-.16-.47-.47-.78-.94-.94-.47-.15-.86-.08-1.18.23-.78.63-.86,1.25-.24,1.88.32.31.71.43,1.18.35s.79-.27.94-.59c.16,0,.24-.31.24-.94ZM118.83,112.63c-.63-1.09-1.49-1.25-2.59-.47-.31.32-.43.74-.35,1.29.08.55.43.9,1.06,1.06.63.16,1.14,0,1.53-.47.39-.47.51-.94.35-1.41ZM118.36,98.32c-.31-.62-.78-.78-1.42-.47-.78,0-1.02.39-.71,1.17.32.63.79.79,1.42.47.32,0,.55-.12.71-.35.16-.24.16-.51,0-.82ZM118.36,103.24c0-.78-.47-1.02-1.42-.7-.78,0-1.02.39-.71,1.17,0,.79.47,1.02,1.42.7.94,0,1.18-.39.71-1.17ZM116.47,88.93c0,.47.32.7.94.7.47,0,.71-.24.71-.7l-.47-.47c-.47-.31-.86-.15-1.18.47ZM118.13,93.62c0-.47-.24-.7-.71-.7-.63,0-.94.31-.94.94,0,.31.32.63.94.94.63-.31.87-.7.71-1.17ZM117.89,84.24c0-.63-.31-.78-.94-.47-.47.47-.47.79,0,.94.32.16.59.16.82,0,.24-.15.28-.31.12-.47ZM116.95,74.39v.47h.71v-.47h-.71ZM117.65,79.78v-.7h-.71v.7h.71ZM117.42,69.69c-.16,0-.24.08-.24.23.16,0,.24-.08.24-.23ZM121.43,153.93c-.31.31-.55.55-.71.7-.16.16-.39.39-.71.7-.78-.78-1.34-1.25-1.65-1.41.63-.47,1.18-1.02,1.65-1.64.32.47.79,1.02,1.42,1.64ZM120.01,159.79c-.31-.31-.78-.62-1.42-.94l1.42-1.41c.32.31.51.55.59.7.08.16.28.31.59.47l-1.18,1.17ZM120.96,163.55c-.16.16-.31.27-.47.35-.16.08-.31.2-.47.35-.31-.15-.51-.27-.59-.35-.08-.08-.27-.19-.59-.35.32-.15.51-.31.59-.47.08-.15.28-.31.59-.47l.94.94ZM120.01,167.53l.47.47-.94.47-.24-.24.71-.7ZM122.61,139.85c-.63-.15-1.18,0-1.65.47-.47.47-.71,1.02-.71,1.64-.16.63.04,1.17.59,1.64.55.47,1.14.63,1.77.47.79.16,1.45-.08,2-.7.55-.62.67-1.25.35-1.88-.16-.47-.43-.9-.83-1.29-.39-.39-.9-.51-1.53-.35ZM124.73,136.56c-.16-.62-.55-1.06-1.18-1.29-.63-.23-1.26-.19-1.89.12-.94.31-1.38.94-1.3,1.88.08.94.59,1.57,1.53,1.88.79.31,1.53.16,2.24-.47.71-.62.91-1.33.59-2.11ZM123.08,130.46c-.78-.15-1.49.08-2.12.7-.47.47-.59,1.02-.35,1.64.24.63.67,1.1,1.3,1.41.79.32,1.49.2,2.12-.35.63-.55.86-1.13.71-1.76-.16-.78-.71-1.33-1.65-1.64ZM121.66,129.05c.79.31,1.53.27,2.24-.12.71-.39.91-.97.59-1.76,0-.78-.43-1.25-1.3-1.4-.86-.15-1.53,0-2,.47-.47.31-.67.78-.59,1.41.08.63.43,1.1,1.06,1.41ZM123.32,121.08c-1.26-.31-2.04.08-2.36,1.18-.31.63-.2,1.21.35,1.76.55.55,1.14.67,1.77.35.94-.15,1.42-.78,1.42-1.88-.32-.78-.71-1.25-1.18-1.41ZM124.26,117.79c0-.47-.27-.86-.83-1.17-.55-.31-1.06-.31-1.53,0-.47.31-.78.7-.94,1.17-.16.47,0,.86.47,1.17.47.47,1.1.59,1.89.35.79-.23,1.1-.74.94-1.52ZM124.02,112.63c-.16-.47-.51-.74-1.06-.82-.55-.08-.98.04-1.3.35-.47.32-.63.74-.47,1.29.16.55.55.9,1.18,1.06.47.16.94,0,1.42-.47.47-.47.55-.94.24-1.41ZM124.02,107.94c-.63-1.09-1.42-1.33-2.36-.7-.47.47-.55,1.1-.24,1.88.94.94,1.73.86,2.36-.24.16-.15.24-.47.24-.94ZM123.79,103.24c-.32-.78-.79-1.02-1.42-.7-.94,0-1.26.39-.94,1.17.32.79.87,1.02,1.65.7.32,0,.55-.12.71-.35.16-.23.16-.51,0-.82ZM123.55,98.32c0-.62-.39-.78-1.18-.47-.78,0-1.02.39-.71,1.17,0,.63.47.79,1.42.47.79,0,.94-.39.47-1.18ZM123.55,93.62c-.47-.47-.78-.7-.94-.7-.63,0-.94.31-.94.94,0,.31.32.63.94.94.79-.47,1.1-.86.94-1.17ZM123.32,88.93c0-.47-.24-.7-.71-.7-.63.31-.86.63-.71.94,0,.31.24.47.71.47.79,0,1.02-.24.71-.7ZM123.32,84.24c-.32-.63-.63-.78-.94-.47-.63.32-.63.63,0,.94.16.16.35.16.59,0,.24-.15.35-.31.35-.47ZM122.37,74.39v.47h.47v-.47h-.47ZM123.08,79.78v-.7h-.71v.7h.71ZM122.84,69.69c-.31,0-.39.08-.24.23.16,0,.24-.08.24-.23ZM123.55,153.93c.63-.47,1.18-1.02,1.65-1.64.47.63,1.02,1.17,1.65,1.64-.79.63-1.34,1.1-1.65,1.41-.63-.63-1.18-1.09-1.65-1.41ZM126.62,158.62c-.32.31-.55.51-.71.59s-.39.27-.71.58c-.16-.31-.55-.62-1.18-.94.63-.63,1.02-1.09,1.18-1.41.63.63,1.1,1.02,1.42,1.17ZM126.15,163.55c-.32.31-.63.55-.94.7-.16-.15-.32-.27-.47-.35s-.32-.19-.47-.35c.32-.15.51-.31.59-.47.08-.15.2-.31.35-.47.32.16.51.31.59.47.08.16.2.32.35.47ZM128.03,139.85c-.79-.15-1.42,0-1.89.47-.47.47-.63,1.02-.47,1.64-.16.63,0,1.17.47,1.64.47.47,1.1.63,1.89.47.79.16,1.42-.08,1.89-.7.47-.62.63-1.25.47-1.88-.16-.47-.47-.9-.94-1.29-.47-.39-.94-.51-1.42-.35ZM128.27,130.46c-.63-.15-1.34.08-2.12.7-.47.47-.59,1.02-.35,1.64.24.63.75,1.1,1.53,1.41.79.32,1.49.2,2.12-.35.63-.55.79-1.13.47-1.76,0-.78-.55-1.33-1.65-1.64ZM130.16,136.8c-.32-1.09-1.02-1.64-2.12-1.64-.79-.15-1.38,0-1.77.47-.39.47-.59.94-.59,1.41,0,.79.28,1.37.82,1.76.55.39,1.22.51,2.01.35,1.42-.31,1.97-1.09,1.65-2.34ZM128.5,121.08c-.94-.31-1.73.08-2.36,1.18-.32.63-.2,1.21.35,1.76.55.55,1.22.67,2.01.35,1.1-.31,1.49-.94,1.18-1.88,0-.62-.39-1.09-1.18-1.41ZM127.09,129.05c.63.31,1.3.27,2-.12.71-.39.98-.97.83-1.76-.16-.78-.63-1.25-1.42-1.4-.79-.15-1.42,0-1.89.47-.47.31-.67.78-.59,1.41.08.63.43,1.1,1.06,1.41ZM129.68,117.79c0-.47-.32-.86-.94-1.17-.63-.31-1.18-.31-1.65,0-1.26.63-1.42,1.41-.47,2.34.47.47,1.14.59,2,.35.87-.23,1.22-.74,1.06-1.52ZM129.45,112.63c-.63-.94-1.34-1.18-2.12-.7-.63.16-.94.58-.94,1.29s.39,1.14,1.18,1.29c.63.16,1.14,0,1.53-.47.39-.47.51-.94.35-1.41ZM129.21,107.94c-.16-.47-.47-.78-.94-.94-.47-.15-.86-.08-1.18.23-.63.79-.71,1.41-.24,1.88.32.31.71.43,1.18.35s.86-.27,1.18-.59v-.94ZM128.98,98.32c-.32-.62-.79-.78-1.42-.47-.79,0-1.02.39-.71,1.17.32.63.79.79,1.42.47.32,0,.55-.12.71-.35.16-.24.16-.51,0-.82ZM128.98,103.24c0-.78-.47-1.02-1.42-.7-.79,0-1.02.39-.71,1.17.32.79.79,1.02,1.42.7.94,0,1.18-.39.71-1.17ZM128.03,88.23c-.63,0-.94.31-.94.94.16.31.47.47.94.47s.71-.24.71-.7l-.71-.7ZM128.74,93.62c0-.47-.24-.7-.71-.7-.63,0-.94.31-.94.94,0,.31.32.63.94.94.63-.31.86-.7.71-1.17ZM128.5,84.24c0-.63-.32-.78-.94-.47-.47.47-.47.79,0,.94.32.16.59.16.82,0,.24-.15.28-.31.12-.47ZM128.27,79.78v-.7h-.71v.7h.71ZM128.03,69.69c-.16,0-.24.08-.24.23.16,0,.24-.08.24-.23ZM127.8,74.39v.47h.47v-.47h-.47ZM128.98,153.93c.63-.47,1.18-1.02,1.65-1.64.32.47.79,1.02,1.42,1.64-.32.31-.55.55-.71.7-.16.16-.39.39-.71.7-.63-.63-1.18-1.09-1.65-1.41ZM130.63,159.79c-.32-.31-.79-.62-1.42-.94l1.42-1.41c.32.31.51.55.59.7.08.16.28.31.59.47l-1.18,1.17ZM130.86,162.84l-1.18.7c.16-.31.32-.51.47-.59.16-.08.32-.19.47-.35l.24.24ZM133.22,139.85c-.63-.15-1.18,0-1.65.47-.47.47-.71,1.02-.71,1.64-.16.63.04,1.17.59,1.64.55.47,1.14.63,1.77.47.79.16,1.46-.08,2.01-.7.55-.62.67-1.25.35-1.88-.15-.47-.43-.9-.82-1.29-.39-.39-.9-.51-1.53-.35ZM135.34,136.8c0-1.09-.71-1.64-2.12-1.64-.63-.15-1.18,0-1.65.47-.47.47-.63.94-.47,1.41-.16.79.04,1.37.59,1.76.55.39,1.22.51,2,.35.63-.15,1.14-.47,1.53-.94.39-.47.43-.94.12-1.4ZM135.34,132.1c-.15-.78-.71-1.33-1.65-1.64-.94-.31-1.65-.08-2.12.7-.47.47-.59,1.02-.35,1.64.24.63.67,1.1,1.3,1.41.79.32,1.49.2,2.12-.35.63-.55.87-1.13.71-1.76ZM132.51,129.05c.63.31,1.3.27,2-.12.71-.39.91-.97.59-1.76,0-.78-.43-1.25-1.3-1.4-.86-.15-1.53,0-2,.47s-.63.98-.47,1.52c.16.55.55.98,1.18,1.29ZM135.11,122.48c-.31-1.25-1.1-1.72-2.36-1.41-.79.16-1.26.63-1.42,1.41-.16.79.16,1.33.94,1.64.63.47,1.3.51,2,.12.71-.39.98-.97.82-1.76ZM134.87,117.79c0-.47-.31-.86-.94-1.17-.63-.31-1.18-.31-1.65,0-1.1.63-1.18,1.41-.24,2.34.47.47,1.1.59,1.88.35.79-.23,1.1-.74.94-1.52ZM134.64,112.63c-.31-1.09-.94-1.33-1.88-.7-.79.16-1.14.58-1.06,1.29.08.7.51,1.14,1.3,1.29.47.16.94,0,1.41-.47.47-.47.55-.94.24-1.41ZM134.64,107.94c-.15-.47-.51-.78-1.06-.94-.55-.15-.98-.08-1.3.23-.47.47-.55,1.1-.24,1.88.94.94,1.73.86,2.36-.24.16-.15.24-.47.24-.94ZM134.4,103.24c-.31-.78-.78-1.02-1.41-.7-.94,0-1.26.39-.94,1.17.32.79.86,1.02,1.65.7.32,0,.55-.12.71-.35.16-.23.16-.51,0-.82ZM134.16,98.32c0-.62-.39-.78-1.18-.47-.79,0-1.02.39-.71,1.17,0,.63.47.79,1.41.47.79,0,.94-.39.47-1.18ZM134.16,93.62c-.47-.47-.78-.7-.94-.7-.63,0-.94.31-.94.94,0,.31.32.63.94.94.79-.47,1.1-.86.94-1.17ZM133.93,88.93c0-.15-.24-.39-.71-.7-.31,0-.55.12-.71.35s-.16.43,0,.59c0,.31.24.47.71.47.79,0,1.03-.24.71-.7ZM133.93,84.24c-.31-.63-.63-.78-.94-.47-.63.32-.63.63,0,.94.16.16.35.16.59,0,.24-.15.35-.31.35-.47ZM132.99,74.39v.47h.47v-.47h-.47ZM133.69,79.78v-.7h-.71v.7h.71ZM133.46,69.69c-.31,0-.39.08-.24.23.16,0,.24-.08.24-.23ZM137.47,153.93c-.31.31-.59.55-.82.7-.24.16-.51.39-.83.7-.78-.78-1.33-1.25-1.65-1.41.63-.47,1.18-1.02,1.65-1.64.47.63,1.03,1.17,1.65,1.64ZM137.23,158.62c-.31.31-.55.51-.71.59-.15.08-.39.27-.71.58-.15-.31-.55-.62-1.18-.94.63-.63,1.03-1.09,1.18-1.41.63.63,1.1,1.02,1.42,1.17ZM138.65,139.85c-.78-.15-1.42,0-1.89.47-.47.47-.63,1.02-.47,1.64-.15.63,0,1.17.47,1.64.47.47,1.1.63,1.89.47.79.16,1.42-.08,1.89-.7.47-.62.63-1.25.47-1.88-.15-.47-.47-.9-.94-1.29-.47-.39-.94-.51-1.42-.35ZM138.65,135.15c-.78-.15-1.37,0-1.77.47-.39.47-.59.94-.59,1.41,0,.79.28,1.37.83,1.76.55.39,1.22.51,2,.35,1.42-.31,1.97-1.09,1.65-2.34-.31-1.09-1.02-1.64-2.12-1.64ZM140.53,132.1c0-.78-.51-1.33-1.53-1.64-1.02-.31-1.77-.08-2.24.7-.31.47-.39,1.02-.24,1.64.16.63.63,1.1,1.42,1.41.79.32,1.5.2,2.12-.35.63-.55.79-1.13.47-1.76ZM140.53,127.41c0-.78-.35-1.29-1.06-1.52s-1.38-.19-2.01.12c-.63.31-.94.79-.94,1.41s.32,1.1.94,1.41c.63.63,1.34.74,2.12.35.79-.39,1.1-.97.94-1.76ZM140.3,117.79c0-.47-.31-.86-.94-1.17-.63-.31-1.18-.31-1.65,0-1.26.63-1.42,1.41-.47,2.34.47.47,1.14.59,2.01.35.87-.23,1.22-.74,1.06-1.52ZM140.3,122.48c0-1.25-.78-1.72-2.36-1.41-.78.16-1.21.63-1.3,1.41-.08.79.2,1.33.82,1.64.63.47,1.3.51,2.01.12.71-.39.98-.97.82-1.76ZM140.06,112.63c-.63-.94-1.33-1.18-2.12-.7-.63.16-.94.58-.94,1.29s.39,1.14,1.18,1.29c.63.16,1.14,0,1.53-.47.39-.47.51-.94.35-1.41ZM139.83,107.94c-.15-.47-.47-.78-.94-.94-.47-.15-.86-.08-1.18.23-.63.79-.71,1.41-.24,1.88.32.31.71.43,1.18.35s.87-.27,1.18-.59v-.94ZM139.59,98.32c-.31-.47-.78-.62-1.42-.47-.78,0-1.02.39-.71,1.17.32.63.79.79,1.42.47.94,0,1.18-.39.71-1.18ZM139.83,103.24c-.31-.78-.86-1.02-1.65-.7-.78,0-1.02.39-.71,1.17.32.79.79,1.02,1.42.7,1.1,0,1.42-.39.94-1.17ZM138.65,88.23c-.63,0-.94.31-.94.94.16.31.47.47.94.47s.71-.24.71-.7l-.71-.7ZM139.35,93.62c0-.47-.24-.7-.71-.7-.63,0-.94.31-.94.94,0,.31.32.63.94.94.63-.31.87-.7.71-1.17ZM139.12,84c-.31-.31-.63-.39-.94-.24-.31.16-.31.39,0,.7.16.32.44.39.83.24.39-.15.43-.39.12-.7ZM138.88,79.78v-.7h-.71v.7h.71ZM138.65,69.69c-.15,0-.24.08-.24.23.16,0,.24-.08.24-.23ZM138.41,74.39v.47h.47v-.47h-.47ZM139.59,153.93c.63-.47,1.18-1.02,1.65-1.64.32.47.79,1.02,1.42,1.64-.31.31-.55.55-.71.7-.15.16-.39.39-.71.7-.63-.63-1.18-1.09-1.65-1.41ZM144.31,84c-.15-.31-.43-.39-.82-.24-.39.16-.43.39-.12.7.32.32.63.39.94.24.32-.15.32-.39,0-.7ZM144.31,79.08c-.47,0-.78.08-.94.24,0,.16.04.23.12.23.08,0,.12.08.12.24h.71v-.7ZM143.6,74.39v.47h.47v-.47h-.47ZM144.07,69.69c-.31,0-.39.08-.24.23.16,0,.24-.08.24-.23ZM144.54,149.23l-.24-.24h.24v.24ZM195.97,13.15c-.15-.15-.31-.24-.47-.24-.31-.31-.55-.59-.71-.82-.15-.24-.31-.51-.47-.82v-.7c.47.16,1.18.24,2.12.24-.31.94-.47,1.72-.47,2.35ZM268.85,53.03v120.13l-37.51-19.01v-71.56c0,.16.04.24.12.24.08,0,.12.08.12.23.16-.15.32-.23.47-.23,0-.15-.08-.31-.24-.47-.15,0-.24.04-.24.12s-.08.12-.24.12v-10.56c.32-.15.32-.39,0-.7v-16.66c.63.32,1.1.24,1.42-.23.47-.47.47-.94,0-1.41-.47-.15-.94-.15-1.42,0v-1.88c0-3.13-.94-5.75-2.83-7.86-1.89-2.11-4.24-3.48-7.07-4.1.79,0,1.26-.24,1.42-.7.63-1.25.32-2.03-.94-2.35-.79-.15-1.42.08-1.89.7-.47.63-.47,1.25,0,1.88.16.16.28.23.35.23.08,0,.2.08.35.24-.32-.15-.86-.24-1.65-.24-.63,0-1.1.08-1.42.24h-.24c-.32-.15-.79-.08-1.42.24-2.83.63-5.11,2.34-6.84,5.16-.31-1.25-.63-2.5-.94-3.75-.31-1.25-.63-2.5-.94-3.76,1.1,0,1.73-.47,1.89-1.41.32-.62.24-1.17-.24-1.64-.47-.47-1.1-.62-1.89-.47-.16,0-.27.04-.35.12-.08.08-.19.12-.35.12-.16-.15-.24-.31-.24-.47s-.08-.31-.24-.47c.63-.62.87-1.17.71-1.64.32-1.25-.31-1.88-1.89-1.88l-.71-1.41c.63-.62.63-1.25,0-1.88-.15-.31-.55-.62-1.18-.94-.31-.31-.63-.94-.94-1.88,0-.47-.15-.86-.47-1.17-.15-.47-.39-.7-.71-.7-.63-1.25-1.1-2.11-1.42-2.58,0-.47-.08-.78-.24-.94l-.71-.7c-.31-.31-.55-.7-.71-1.17-.15-.47-.39-.86-.71-1.18v-.47c.94.63,1.89.7,2.83.24-.63.94-.94,1.64-.94,2.11.32,1.57,1.18,2.27,2.59,2.11.94-.15,1.65-.66,2.12-1.52.47-.86.39-1.6-.24-2.23-.31-.62-.75-.97-1.3-1.06-.55-.08-1.06-.04-1.53.12.79-.78,1.03-1.64.71-2.58,1.26.63,2.28.7,3.07.24-.31.31-.59.67-.83,1.06s-.27.74-.12,1.06c.16.63.43,1.17.82,1.64.39.47.99.55,1.77.24.79,0,1.45-.43,2-1.29.55-.86.51-1.6-.12-2.23-.31-.62-.75-.97-1.3-1.06-.55-.08-1.06-.04-1.53.12.79-.78,1.02-1.64.71-2.58,1.26.31,2.28.39,3.07.24-.31.31-.59.78-.83,1.41s-.19,1.17.12,1.64c.94,1.41,2.12,1.57,3.54.47.63-.31,1.02-.78,1.18-1.41.16-.63,0-1.25-.47-1.88-.31-.47-.75-.74-1.3-.82-.55-.08-1.06-.04-1.53.12.63-1.25.87-2.11.71-2.58,1.26.32,2.28.32,3.07,0-.94,1.25-1.26,2.19-.94,2.82.32.79.82,1.25,1.53,1.41.71.16,1.38,0,2.01-.47.79-.31,1.26-.82,1.42-1.53s0-1.29-.47-1.76c-.47-.94-1.49-1.25-3.07-.94.79-.78,1.1-1.64.94-2.58,1.1.47,2.12.55,3.07.23-.63.63-.94,1.18-.94,1.64-.32.79-.12,1.49.59,2.11.71.63,1.45.78,2.24.47.79-.31,1.38-.86,1.77-1.64.39-.78.35-1.49-.12-2.11-.32-.63-.75-.98-1.3-1.06-.55-.08-1.14-.04-1.77.12.47-.15.71-.55.71-1.17,1.1,0,1.89.08,2.36.23v.24c-.32.79-.12,1.45.59,2,.71.55,1.45.67,2.24.35,1.1-.31,1.81-1.09,2.12-2.35.94.31,1.73.47,2.36.47-.47.94-.31,1.8.47,2.58.32.31.94.47,1.89.47,1.1-.31,1.81-.94,2.12-1.88.47.16.91.27,1.3.35.39.08.82.2,1.3.35-.31.78-.08,1.33.71,1.64.79.94,1.81.94,3.07,0,.32,0,.79.16,1.42.47-.31,0-.47.08-.47.23-.78,0-1.37.43-1.77,1.29-.39.86-.27,1.52.35,1.99.47.47,1.06.63,1.77.47.71-.15,1.22-.55,1.53-1.18.47-.78.39-1.48-.24-2.11.63.32,1.26.67,1.89,1.06.63.39,1.26.74,1.89,1.06-.15.79-.08,1.33.24,1.64.63.79,1.42.86,2.36.24.32.16.55.31.71.47.16.16.39.31.71.47-.31,0-.63.16-.94.47-.78.63-.86,1.41-.24,2.34.94.94,1.89.86,2.83-.23.16-.15.24-.27.24-.35s.08-.19.24-.35c4.09,3.6,7.51,7.74,10.26,12.44,2.75,4.69,4.68,9.78,5.78,15.25-.15.16-.15.47,0,.94h.24c.47,2.82.71,5.71.71,8.68v1.88ZM198.32,9.63c.32-.63.47-1.25.47-1.88.47.16,1.18.24,2.12.24-.31.94-.47,1.72-.47,2.35-.31-.31-.67-.47-1.06-.47s-.74-.08-1.06-.23ZM202.33,22.06c.63.78,1.57.86,2.83.23.47-.31.79-.82.94-1.52.16-.7.08-1.29-.24-1.76-.31-.47-.78-.74-1.42-.82-.63-.08-1.18.04-1.65.35-.78.31-1.22.86-1.3,1.64-.08.79.2,1.41.83,1.88ZM202.81,6.81c.32-.62.47-1.25.47-1.88.47.16,1.18.23,2.12.23-.31.94-.47,1.64-.47,2.11-.94-.31-1.65-.47-2.12-.47ZM204.93,26.05c.94.94,1.81.94,2.59,0,1.57-.62,1.89-1.56.94-2.82-.31-.62-.86-.94-1.65-.94s-1.42.24-1.89.7c-.31.32-.51.82-.59,1.53-.08.7.12,1.21.59,1.52ZM207.05,15.73c-.63.31-.98.86-1.06,1.64-.08.78.12,1.4.59,1.88.94.94,1.89.94,2.83,0,.63-.31,1.02-.78,1.18-1.41.16-.62.08-1.17-.24-1.64-.31-.47-.78-.74-1.42-.82-.63-.08-1.26.04-1.89.35ZM207.52,29.81c.47.63,1.26.78,2.36.47.79-.47,1.18-1.09,1.18-1.88.16-.63-.04-1.18-.59-1.64-.55-.47-1.14-.55-1.77-.24-.78.32-1.3.82-1.53,1.53s-.12,1.29.35,1.76ZM209.88,2.35c-.31.94-.47,1.64-.47,2.11-.94-.31-1.73-.47-2.36-.47.16-.15.39-.55.71-1.17.94-.31,1.65-.47,2.12-.47ZM211.3,40.36c.47-.47.59-1.06.35-1.76s-.75-.97-1.53-.82c-.78-.15-1.38.16-1.77.94-.39.78-.35,1.41.12,1.88.94.94,1.89.86,2.83-.24ZM212.95,22.53c.47-.78.39-1.56-.24-2.35-.63-.78-1.34-1.02-2.12-.7-.78.32-1.34.9-1.65,1.76-.31.86-.16,1.53.47,2,.47.47,1.1.63,1.89.47.79-.15,1.34-.54,1.65-1.17ZM210.35,33.79c.47.47,1.1.63,1.89.47.79-.15,1.26-.62,1.42-1.41.16-.62.04-1.17-.35-1.64-.39-.47-.9-.62-1.53-.47-.78,0-1.38.39-1.77,1.17-.39.79-.27,1.41.35,1.88ZM211.53,12.91c-.63.31-.98.86-1.06,1.64-.08.78.12,1.41.59,1.88.94.94,1.89.94,2.83,0,.63-.31,1.02-.78,1.18-1.41.16-.62.08-1.17-.24-1.64-.31-.62-.78-.97-1.42-1.06-.63-.08-1.26.12-1.89.59ZM215.54,25.58c.16-.78-.04-1.37-.59-1.76-.55-.39-1.14-.43-1.77-.12-.78.32-1.3.82-1.53,1.53s-.12,1.29.35,1.76c.63.63,1.42.78,2.36.47.79-.47,1.18-1.09,1.18-1.88ZM214.6,38.25c.47-.15.91-.43,1.3-.82.39-.39.43-.82.12-1.29,0-.78-.39-1.21-1.18-1.29-.78-.08-1.34.12-1.65.58-.78.79-.86,1.57-.24,2.35.63.31,1.18.47,1.65.47ZM216.49,16.67c-.32-.31-.75-.35-1.3-.12-.55.24-.98.51-1.3.82-1.1,1.09-1.1,2.11,0,3.05.47.31,1.1.43,1.89.35.79-.08,1.34-.43,1.65-1.06.47-1.41.16-2.42-.94-3.05ZM218.14,30.04c.16-.62.04-1.17-.35-1.64-.39-.47-.9-.63-1.53-.47-.79,0-1.38.39-1.77,1.18-.39.78-.27,1.41.35,1.88.32.47.91.63,1.77.47.87-.15,1.38-.62,1.53-1.41ZM216.72,9.63c-.94.31-1.53.9-1.77,1.76-.24.86-.04,1.52.59,1.99.63.79,1.42.98,2.36.59.94-.39,1.49-1.06,1.65-2,.32-.78.12-1.44-.59-1.99-.71-.55-1.45-.66-2.24-.35ZM220.03,22.77c.16-.78-.04-1.37-.59-1.76-.55-.39-1.14-.43-1.77-.12-.79.16-1.3.63-1.53,1.41-.24.79-.12,1.41.35,1.88.63.63,1.34.78,2.12.47.94-.47,1.42-1.09,1.42-1.88ZM217.67,32.62c-.79.79-.86,1.49-.24,2.11.63.63,1.18.79,1.65.47.47,0,.86-.24,1.18-.7.32-.47.39-.86.24-1.18,0-.78-.39-1.25-1.18-1.41-.79-.15-1.34.08-1.65.7ZM221.44,14.32c-.32-.47-.83-.66-1.53-.59-.71.08-1.22.35-1.53.82-1.26.94-1.26,1.88,0,2.82.47.47,1.06.63,1.77.47.71-.15,1.22-.55,1.53-1.17.94-.94.86-1.72-.24-2.35ZM220.5,24.88c-.79.16-1.34.63-1.65,1.41s-.16,1.41.47,1.88c.32.47.91.59,1.77.35.87-.24,1.3-.74,1.3-1.52.32-.63.28-1.18-.12-1.64-.39-.47-.98-.62-1.77-.47ZM220.97,6.81c-.79.31-1.3.9-1.53,1.76-.24.86-.04,1.52.59,1.99.63.63,1.42.74,2.36.35.94-.39,1.49-.97,1.65-1.76.32-.78.08-1.44-.71-1.99-.79-.55-1.57-.66-2.36-.35ZM224.51,19.72c.16-.62-.04-1.13-.59-1.52-.55-.39-1.14-.43-1.77-.12-.79.16-1.3.58-1.53,1.29s-.12,1.29.35,1.76c.47.63,1.18.79,2.12.47.94-.31,1.41-.94,1.41-1.88ZM221.91,29.81c-.63.78-.63,1.49,0,2.11.47.47,1.02.63,1.65.47,1.26-.31,1.73-1.02,1.41-2.11,0-.62-.39-1.02-1.18-1.17-.79-.15-1.42.08-1.89.7ZM226.63,12.68c0-.78-.35-1.33-1.06-1.64-.71-.31-1.45-.24-2.24.23-.63.32-1.02.82-1.18,1.53s.08,1.29.71,1.76c.63.78,1.45.9,2.48.35,1.03-.55,1.45-1.29,1.3-2.23ZM224.98,22.06c-.78,0-1.33.39-1.65,1.17-.32.79-.16,1.41.47,1.88.32.63.86.82,1.65.59.79-.24,1.26-.74,1.42-1.52.32-.63.28-1.18-.12-1.64-.39-.47-.98-.62-1.77-.47ZM225.45,4c-.78.31-1.3.9-1.53,1.76-.24.86-.04,1.52.59,1.99.63.63,1.42.74,2.36.35.94-.39,1.5-.97,1.65-1.76.32-.78.08-1.45-.71-2-.78-.55-1.57-.66-2.36-.35ZM224.51,35.91c.32.31.79.47,1.42.47s1.1-.31,1.42-.94c.32-.31.35-.7.12-1.17s-.59-.78-1.06-.94c-.78-.31-1.42-.12-1.89.59-.47.7-.47,1.37,0,2ZM228.99,16.9c.16-.62-.08-1.13-.71-1.52-.63-.39-1.26-.43-1.89-.12-.78.16-1.26.63-1.42,1.41-.15.78,0,1.41.47,1.88s1.18.55,2.12.23c.94-.31,1.42-.94,1.42-1.88ZM229.46,27.46c0-.78-.39-1.21-1.18-1.29-.78-.08-1.42.2-1.89.82-.63.63-.63,1.33,0,2.11.47.47,1.03.63,1.65.47,1.26-.31,1.73-1.02,1.42-2.11ZM227.34,11.74c.63.63,1.38.7,2.24.23.87-.47,1.38-1.09,1.53-1.88,0-.78-.27-1.41-.82-1.88-.55-.47-1.22-.55-2.01-.24-.78.31-1.33.9-1.65,1.76-.31.86-.08,1.52.71,2ZM227.57,39.89c.32.31.75.39,1.3.24.55-.15.91-.47,1.06-.94.32-.47.24-.94-.24-1.41s-1.02-.55-1.65-.24c-.47.32-.74.7-.82,1.18-.08.47.04.86.35,1.17ZM231.35,21.36c.32-.63.24-1.18-.24-1.64s-1.02-.62-1.65-.47c-.78,0-1.33.39-1.65,1.17-.31.79-.24,1.41.24,1.88.47.63,1.1.82,1.89.59.79-.24,1.26-.74,1.42-1.52ZM229.93,30.51c-.47.16-.82.51-1.06,1.05-.24.55-.2.98.12,1.29.32.47.79.7,1.42.7s1.1-.31,1.42-.94c.32-.62.24-1.21-.24-1.76-.47-.54-1.02-.66-1.65-.35ZM229.93,15.49c.47.47,1.1.63,1.89.47.79-.15,1.26-.55,1.42-1.18.32-.78.24-1.48-.24-2.11-.47-.62-1.1-.78-1.89-.47-.78.31-1.33.86-1.65,1.64-.31.78-.15,1.33.47,1.64ZM230.4,43.88c.32.31.71.39,1.18.24.47-.15.79-.47.94-.94.32-.62,0-1.09-.94-1.41-.31-.31-.67-.27-1.06.12-.39.39-.59.74-.59,1.05-.15.16,0,.47.47.94ZM230.87,23.94c-.47.79-.47,1.57,0,2.35.47.63,1.18.7,2.12.23.94-.47,1.26-1.09.94-1.88,0-.78-.39-1.21-1.18-1.29-.78-.08-1.42.12-1.89.59ZM232.76,5.17c-.78.32-1.33.9-1.65,1.76-.31.86-.08,1.52.71,2,.63.63,1.38.7,2.24.23.87-.47,1.38-1.09,1.53-1.88,0-.78-.27-1.41-.82-1.88-.55-.47-1.22-.55-2.01-.24ZM232.05,37.08c.79.47,1.5.39,2.12-.24.32-.47.35-.97.12-1.52-.24-.55-.67-.74-1.3-.59-.78,0-1.26.32-1.42.94-.15.63,0,1.1.47,1.41ZM233.23,65.47c.47-.47.47-.86,0-1.17-.15-.15-.47-.15-.94,0-.31.47-.39.78-.24.94.32.16.71.24,1.18.24ZM235.83,18.54c.32-.62.24-1.17-.24-1.64-.47-.47-1.02-.62-1.65-.47-.78,0-1.33.39-1.65,1.17-.31.79-.24,1.41.24,1.88.47.47,1.1.63,1.89.47.79-.15,1.26-.63,1.42-1.41ZM233,47.87c.63.32,1.18.24,1.65-.23.63-.47.63-1.02,0-1.64-.63-.31-1.18-.24-1.65.24-.47.63-.47,1.17,0,1.64ZM233.94,75.79c0-.15-.04-.24-.12-.24-.08,0-.12-.08-.12-.23-.15,0-.39.16-.71.47l.47.47.47-.47ZM236.3,29.81c.32-.78.24-1.41-.24-1.88-.47-.47-1.02-.55-1.65-.23-.47.16-.82.51-1.06,1.06-.24.55-.2.98.12,1.29.32.47.79.67,1.42.59.63-.08,1.1-.35,1.42-.82ZM233.94,58.67c.16,0,.32.04.47.12.16.08.39.04.71-.12.47-.47.55-.86.24-1.18-.15-.47-.55-.54-1.18-.23-.78.31-.86.78-.24,1.41ZM237.72,11.74c.32-.78.2-1.45-.35-2-.55-.55-1.22-.66-2.01-.35-.78.31-1.3.82-1.53,1.52s-.04,1.29.59,1.76c.47.47,1.06.63,1.77.47.71-.15,1.22-.63,1.53-1.41ZM234.88,41.07c.32.32.67.35,1.06.12.39-.24.75-.51,1.06-.82.32-.78,0-1.33-.94-1.64s-1.57.16-1.89,1.41c0,.16.24.47.71.94ZM234.18,86.82c.16,0,.24-.08.24-.24-.15,0-.24.08-.24.24ZM235.83,69.22c.32-.62.16-.94-.47-.94-.31,0-.51.12-.59.35-.08.23-.04.43.12.58.16.16.35.24.59.24s.35-.08.35-.24ZM235.36,23.23c.47.79,1.18.94,2.12.47.94-.47,1.26-1.09.94-1.88,0-.78-.39-1.25-1.18-1.41-.78-.15-1.42.08-1.89.7-.63.79-.63,1.49,0,2.11ZM235.83,51.86c.47.47.94.39,1.42-.24.63-.62.55-1.09-.24-1.41-.31-.47-.78-.39-1.42.24-.63.63-.55,1.09.24,1.41ZM236.3,79.55c-.15,0-.31.08-.47.24l.24.47.47-.47-.24-.24ZM237.48,31.68c-.78.16-1.26.55-1.42,1.17-.15.63,0,1.1.47,1.41.32.31.67.39,1.06.24.39-.15.75-.39,1.06-.7.32-.31.35-.78.12-1.41s-.67-.86-1.3-.7ZM236.54,62.42c.47.16.87.16,1.18,0,.47-.47.47-.78,0-.94-.15-.15-.47-.15-.94,0-.31.47-.39.78-.24.94ZM240.31,15.49c.32-.62.24-1.13-.24-1.52-.47-.39-1.02-.59-1.65-.59-.78.16-1.33.63-1.65,1.41-.31.79-.24,1.41.24,1.88.47.47,1.1.58,1.89.35.79-.24,1.26-.74,1.42-1.53ZM237.48,45.05c.63.32,1.18.24,1.65-.23.63-.47.63-1.02,0-1.64-.78-.47-1.33-.39-1.65.24-.47.63-.47,1.17,0,1.64ZM238.42,72.98c0-.15-.08-.31-.24-.47-.15,0-.27.04-.35.12-.08.08-.2.12-.35.12.16.16.24.28.24.35,0,.08.08.2.24.35l.47-.47ZM240.78,26.75c.32-.62.24-1.17-.24-1.64-.47-.47-1.02-.55-1.65-.23-.47.16-.82.51-1.06,1.06-.24.55-.2.98.12,1.29.32.47.79.67,1.42.59.63-.08,1.1-.43,1.42-1.06ZM238.42,55.61c.16.16.55.24,1.18.24.32-.63.39-1.09.24-1.41-.31-.31-.71-.31-1.18,0-.78.47-.86.86-.24,1.17ZM239.37,38.25c.32.32.67.35,1.06.12.39-.24.67-.51.82-.82.32-.78.08-1.33-.71-1.64-.31-.15-.71-.08-1.18.23-.47.32-.71.7-.71,1.18s.24.78.71.94ZM238.66,84c.16,0,.24-.08.24-.24-.15,0-.24.08-.24.24ZM240.31,66.17c.47-.47.32-.7-.47-.7-.31-.15-.51-.08-.59.24-.08.31-.04.55.12.7.32.32.63.24.94-.23ZM239.84,20.42c.32.47.75.67,1.3.59.55-.08.98-.35,1.3-.82.63-.62.71-1.33.24-2.11-.31-.31-.82-.43-1.53-.35s-1.22.35-1.53.82c-.47.63-.39,1.25.24,1.88ZM240.31,49.05c.47.47.94.39,1.42-.24.32-.62.24-1.09-.24-1.41-.31-.47-.78-.39-1.42.24-.47.31-.39.78.24,1.41ZM241.02,76.97c-.15,0-.24-.15-.24-.47l-.47.47.24.24c.16,0,.32-.08.47-.24ZM243.14,30.98c.32-.47.32-.97,0-1.52-.31-.55-.78-.74-1.42-.59-.63.16-1.02.55-1.18,1.17-.15.63,0,1.1.47,1.41.32.31.67.39,1.06.24.39-.15.75-.39,1.06-.7ZM241.02,59.6c.16,0,.28.04.35.12.08.08.2.12.35.12.47,0,.71-.31.71-.94,0-.31-.39-.47-1.18-.47-.47.47-.55.86-.24,1.17ZM244.79,12.68c.32-.62.24-1.17-.24-1.64-.47-.47-1.02-.63-1.65-.47-.78,0-1.33.39-1.65,1.18-.31.78-.24,1.41.24,1.88.47.63,1.1.82,1.89.59.79-.24,1.26-.74,1.42-1.53ZM241.96,40.6c-.63.63-.63,1.1,0,1.41.63.63,1.18.63,1.65,0,.79-.78.79-1.33,0-1.64-.63-.62-1.18-.55-1.65.24ZM242.9,70.16c0-.15-.04-.27-.12-.35-.08-.08-.12-.19-.12-.35-.31.31-.55.47-.71.47l.47.47.47-.24ZM242.43,24.41c.32.47.83.67,1.53.59.71-.08,1.14-.51,1.3-1.29.32-.62.24-1.17-.24-1.64-.47-.47-1.02-.55-1.65-.24-.47.31-.82.7-1.06,1.17-.24.47-.2.94.12,1.41ZM242.9,52.8c.32.32.63.32.94,0,.63-.31.79-.7.47-1.17-.47-.47-.86-.55-1.18-.24-.63.63-.71,1.1-.24,1.41ZM243.14,34.26c0,.47.16.86.47,1.17,1.1.63,1.81.39,2.12-.7.32-.78.08-1.33-.71-1.64-.31-.15-.71-.08-1.18.23-.47.32-.71.63-.71.94ZM243.14,81.19c.16-.15.24-.31.24-.47-.15.16-.24.31-.24.47ZM247.39,15.96c-.15-.63-.63-1.02-1.42-1.18-.78-.15-1.33.08-1.65.7-.78.47-.86,1.18-.24,2.11.79.79,1.57.86,2.36.24.63-.15.94-.78.94-1.88ZM244.79,63.36c.16-.15.2-.35.12-.59-.08-.23-.27-.27-.59-.12-.31-.15-.51-.12-.59.12-.08.24-.04.51.12.82.32.31.63.23.94-.24ZM244.56,44.59c-.47.47-.47.94,0,1.41s1.03.39,1.65-.24c.47-.31.39-.78-.24-1.41-.31-.31-.78-.23-1.42.24ZM245.5,74.15c-.15-.15-.24-.31-.24-.47-.15.16-.31.24-.47.24,0,.31.08.47.24.47l.47-.24ZM245.5,28.63c.32.32.75.35,1.3.12.55-.24.91-.59,1.06-1.06.16-.47.04-.9-.35-1.29-.39-.39-.83-.51-1.3-.35-.63.16-1.02.55-1.18,1.17-.15.63,0,1.1.47,1.41ZM246.91,56.08c0-.62-.39-.78-1.18-.47-.31.31-.39.7-.24,1.17h.71c.47,0,.71-.23.71-.7ZM246.44,37.78c-.31.16-.47.39-.47.7s.16.55.47.7c.63.63,1.18.55,1.65-.24.32-.78.24-1.25-.24-1.41-.15-.31-.39-.43-.71-.35-.31.08-.55.28-.71.59ZM249.75,20.89c.32-.62.24-1.17-.24-1.64-.47-.47-1.02-.55-1.65-.24-1.57.63-1.89,1.41-.94,2.35.32.63.83.86,1.53.7.71-.15,1.14-.55,1.3-1.18ZM246.68,67.58c.16,0,.28-.04.35-.12.08-.08.2-.12.35-.12,0-.15-.04-.27-.12-.35-.08-.08-.12-.19-.12-.35-.15.16-.27.24-.35.24-.08,0-.2.08-.35.23,0,.16.04.24.12.24.08,0,.12.08.12.24ZM247.62,48.57c-.78.32-.86.79-.24,1.41.32.32.63.32.94,0,.63-.31.79-.7.47-1.17-.31-.62-.71-.7-1.18-.24ZM250.22,31.68c.32-.63.08-1.09-.71-1.41-.31-.15-.71-.08-1.18.24s-.71.63-.71.94.16.63.47.94c.32.31.71.39,1.18.23.47-.15.79-.47.94-.94ZM247.86,77.9l-.24.24c.16,0,.24-.08.24-.24ZM249.27,60.54c.32-.62.16-.94-.47-.94s-.78.39-.47,1.18c.63,0,.94-.08.94-.24ZM250.69,42.94c.32-.47.24-.94-.24-1.4-.63-.31-1.1-.24-1.42.23-.63.63-.63,1.1,0,1.41.47.47,1.03.39,1.65-.24ZM249.98,71.33c-.15-.15-.24-.31-.24-.47-.15,0-.31.08-.47.24,0,.16.08.31.24.47l.47-.24ZM252.34,24.88c.16-.47.04-.9-.35-1.29-.39-.39-.83-.51-1.3-.35-.63.16-1.02.51-1.18,1.06-.15.55,0,.98.47,1.29.32.31.71.39,1.18.23.47-.15.87-.47,1.18-.94ZM249.98,53.74c.32.31.59.43.83.35.24-.08.35-.27.35-.59.32-.31.32-.55,0-.7-.31-.15-.63-.15-.94,0-.31.47-.39.79-.24.94ZM252.58,36.14c.32-.78.24-1.33-.24-1.64-.47-.47-1.02-.39-1.65.23-.31.63-.24,1.18.24,1.64.63.31,1.18.24,1.65-.24ZM251.87,64.3l-.47-.47-.47.47.24.47c.16-.15.28-.24.35-.24s.2-.08.35-.23ZM254.23,18.31c.32-.62.24-1.21-.24-1.76-.47-.55-1.02-.66-1.65-.35-.63.16-1.02.51-1.18,1.06-.15.55-.08.98.24,1.29.32.47.79.67,1.42.58.63-.08,1.1-.35,1.42-.82ZM253.28,45.99c-.31-.47-.78-.55-1.42-.24-.47.47-.47.94,0,1.41.32.32.63.32.94,0,.79-.31.94-.7.47-1.17ZM253.99,27.46c-.31-.31-.71-.31-1.18,0-.47.31-.71.7-.71,1.17,0,.32.16.63.47.94.32.31.71.39,1.18.24.47-.15.79-.47.94-.94.32-.94.08-1.41-.71-1.41ZM252.1,75.32c.16,0,.16-.08,0-.24v.24ZM253.28,56.79c-.31,0-.55.12-.71.35-.15.24-.08.43.24.59.32.31.63.31.94,0,.32-.62.16-.94-.47-.94ZM255.17,40.13c.32-.63.24-1.09-.24-1.41-.63-.31-1.1-.24-1.42.23-.63.63-.63,1.1,0,1.41.63.32,1.18.24,1.65-.23ZM254.46,68.29c-.15,0-.24-.04-.24-.12,0-.08-.08-.12-.24-.12l-.24.24c0,.16.08.31.24.47l.47-.47ZM256.82,22.06c.16-.47.04-.9-.35-1.29-.39-.39-.83-.51-1.3-.35-.63,0-1.06.31-1.3.94s-.04,1.1.59,1.41c.32.31.71.39,1.18.23.47-.15.87-.47,1.18-.94ZM255.64,50.69c.16-.31.12-.55-.12-.7-.24-.15-.51-.15-.83,0-.31.47-.39.79-.24.94.32.31.59.43.83.35.24-.08.35-.27.35-.59ZM256.82,31.68c-.63-.31-1.18-.24-1.65.23-.31.79-.24,1.33.24,1.64.47.47,1.03.39,1.65-.24.32-.62.24-1.17-.24-1.64ZM255.88,61.01l-.47.24c0,.16.04.27.12.35.08.08.12.2.12.35.16-.15.28-.24.35-.24s.2-.08.35-.23l-.47-.47ZM257.77,43.18c-.31-.47-.78-.55-1.42-.24-.78.47-.78.86,0,1.18.47.47.79.55.94.23.79-.31.94-.7.47-1.17ZM256.59,72.51c.16,0,.24-.04.24-.12,0-.08-.08-.12-.24-.12s-.24.04-.24.12c0,.08.08.12.24.12ZM258.47,24.41c-.31-.15-.71-.08-1.18.24-.47.31-.71.7-.71,1.17,0,.32.16.63.47.94,1.1.63,1.81.39,2.12-.7.32-.78.08-1.33-.71-1.64ZM257.77,53.97c-.31-.15-.55-.08-.71.23-.15.31-.08.55.24.7.32.31.63.24.94-.24.47-.47.32-.7-.47-.7ZM259.42,35.91c-.63-.63-1.1-.55-1.42.23-.63.32-.63.79,0,1.41.63.32,1.1.24,1.42-.23.63-.63.63-1.09,0-1.41ZM258.71,65.47l-.24-.24-.47.24c.16,0,.24.04.24.12,0,.08.08.12.24.12l.24-.24ZM260.12,47.64c.16-.31.12-.55-.12-.7-.24-.15-.51-.15-.83,0-.31.63-.39,1.02-.24,1.17.79.47,1.18.31,1.18-.47ZM261.3,28.87c-.63-.31-1.18-.24-1.65.24-.31.78-.24,1.33.24,1.64.16.16.39.24.71.24s.55-.15.71-.47c.63-.47.63-1.02,0-1.64ZM260.83,58.67l-.47-.47c-.15,0-.24.04-.24.12s-.08.12-.24.12c0,.16.04.28.12.35.08.08.12.2.12.35.32-.31.55-.47.71-.47ZM262.25,40.13c-.63-.31-1.1-.39-1.42-.24-.63.63-.63,1.1,0,1.41.32.31.63.31.94,0,.32-.15.47-.55.47-1.17ZM261.07,69.69c.16,0,.24-.04.24-.12,0-.08-.08-.12-.24-.12s-.15.08,0,.24ZM262.25,51.16c-.31-.15-.55-.08-.71.23-.15.32-.08.55.24.7.32.32.63.24.94-.23.47-.47.32-.7-.47-.7ZM263.9,33.09c-.63-.63-1.1-.55-1.42.23-.78.47-.78.86,0,1.18.47.47.94.47,1.42,0,.63-.63.63-1.09,0-1.41ZM263.19,62.65c0-.15-.08-.31-.24-.47l-.47.47c.16,0,.24.08.24.24.16,0,.32-.08.47-.24ZM264.61,44.82c.16-.31.12-.55-.12-.7-.24-.15-.51-.15-.83,0-.31.31-.39.7-.24,1.17.16.16.39.2.71.12.32-.08.47-.27.47-.58ZM265.31,55.85c-.15-.15-.24-.27-.24-.35s-.08-.19-.24-.35l-.47.47c0,.16.08.31.24.47.16,0,.28-.03.35-.12.08-.08.2-.12.35-.12ZM266.49,37.31c-.31-.31-.71-.39-1.18-.24-.47.63-.55,1.1-.24,1.41.47.31.87.31,1.18,0,.47-.15.55-.55.24-1.17ZM265.55,66.88c.16-.15.16-.31,0-.47-.15.16-.15.32,0,.47ZM266.73,48.11c-.78,0-1.02.39-.71,1.17.63.32,1.03.24,1.18-.23.32-.63.16-.94-.47-.94ZM267.67,59.84c0-.15-.08-.31-.24-.47l-.47.23c.16.16.24.32.24.47.16,0,.32-.08.47-.24Z"/>
  </g>
</svg>